%FSLAX46Y46*%
G04 Gerber Fmt 4.6, Leading zero omitted, Abs format (unit mm)*
G04 Created by KiCad (PCBNEW (2014-10-18 BZR 5203)-product) date 6/17/2015 2:44:21 PM*
%MOMM*%
G01*
G04 APERTURE LIST*
%ADD10C,0.100000*%
%ADD11C,0.127000*%
%ADD12C,0.200000*%
%ADD13C,0.149860*%
%ADD14C,0.150000*%
%ADD15C,0.123000*%
%ADD16C,0.122555*%
G04 APERTURE END LIST*
D10*
D11*
X124157014Y-98848938D02*
X124157014Y-99018272D01*
X124423110Y-99090843D02*
X124423110Y-98848938D01*
X123915110Y-98848938D01*
X123915110Y-99090843D01*
X123915110Y-99405319D02*
X123915110Y-99453700D01*
X123939300Y-99502081D01*
X123963490Y-99526272D01*
X124011871Y-99550462D01*
X124108633Y-99574653D01*
X124229586Y-99574653D01*
X124326348Y-99550462D01*
X124374729Y-99526272D01*
X124398919Y-99502081D01*
X124423110Y-99453700D01*
X124423110Y-99405319D01*
X124398919Y-99356938D01*
X124374729Y-99332748D01*
X124326348Y-99308557D01*
X124229586Y-99284367D01*
X124108633Y-99284367D01*
X124011871Y-99308557D01*
X123963490Y-99332748D01*
X123939300Y-99356938D01*
X123915110Y-99405319D01*
D12*
X122959985Y-96113600D02*
G75*
G03X122959985Y-96113600I-227185J0D01*
G01*
D13*
X111549180Y-96893380D02*
X111549180Y-99293680D01*
X111549180Y-99293680D02*
X109400340Y-99293680D01*
X111549180Y-92793820D02*
X111549180Y-90393520D01*
X111549180Y-90393520D02*
X109400340Y-90393520D01*
X124714000Y-97485200D02*
X124561600Y-97180400D01*
X124561600Y-97180400D02*
X124409200Y-97485200D01*
X124409200Y-97485200D02*
X124714000Y-97485200D01*
X125196600Y-98666300D02*
X125196600Y-95999300D01*
X125196600Y-95999300D02*
X123926600Y-95999300D01*
X123926600Y-95999300D02*
X123926600Y-98666300D01*
X123926600Y-98666300D02*
X125196600Y-98666300D01*
D14*
X122563800Y-90694600D02*
X122038800Y-90694600D01*
X117313800Y-95944600D02*
X117838800Y-95944600D01*
X117313800Y-90694600D02*
X117838800Y-90694600D01*
X122563800Y-95944600D02*
X122563800Y-95419600D01*
X117313800Y-95944600D02*
X117313800Y-95419600D01*
X117313800Y-90694600D02*
X117313800Y-91219600D01*
X122563800Y-90694600D02*
X122563800Y-91219600D01*
X116779600Y-91282000D02*
X116779600Y-90582000D01*
X115579600Y-90582000D02*
X115579600Y-91282000D01*
X117647200Y-96529600D02*
X116947200Y-96529600D01*
X116947200Y-97729600D02*
X117647200Y-97729600D01*
X119829200Y-97877000D02*
X118829200Y-97877000D01*
X118829200Y-99227000D02*
X119829200Y-99227000D01*
X119829200Y-99147000D02*
X118829200Y-99147000D01*
X118829200Y-100497000D02*
X119829200Y-100497000D01*
X123153800Y-99255200D02*
X123153800Y-98255200D01*
X121803800Y-98255200D02*
X121803800Y-99255200D01*
D10*
G36*
X113887520Y-100554021D02*
X113963057Y-100553533D01*
X114041532Y-100552374D01*
X114117890Y-100550621D01*
X114187078Y-100548351D01*
X114244043Y-100545640D01*
X114283732Y-100542563D01*
X114301091Y-100539198D01*
X114301375Y-100538902D01*
X114306678Y-100521057D01*
X114316047Y-100480184D01*
X114328484Y-100421017D01*
X114342988Y-100348290D01*
X114356677Y-100276798D01*
X114373039Y-100194409D01*
X114389123Y-100121832D01*
X114403759Y-100063773D01*
X114415776Y-100024934D01*
X114422907Y-100010678D01*
X114442783Y-99999131D01*
X114482996Y-99980307D01*
X114537544Y-99956622D01*
X114600429Y-99930496D01*
X114665650Y-99904347D01*
X114727208Y-99880593D01*
X114779101Y-99861653D01*
X114815331Y-99849945D01*
X114828129Y-99847348D01*
X114845357Y-99855055D01*
X114881530Y-99876400D01*
X114932518Y-99908773D01*
X114994192Y-99949560D01*
X115051373Y-99988511D01*
X115119248Y-100034439D01*
X115180380Y-100074116D01*
X115230520Y-100104918D01*
X115265419Y-100124218D01*
X115279788Y-100129622D01*
X115295629Y-100120109D01*
X115327217Y-100094050D01*
X115370732Y-100055161D01*
X115422348Y-100007162D01*
X115478243Y-99953770D01*
X115534594Y-99898704D01*
X115587578Y-99845681D01*
X115633371Y-99798419D01*
X115668150Y-99760637D01*
X115688092Y-99736053D01*
X115691355Y-99729373D01*
X115683740Y-99714355D01*
X115662653Y-99680247D01*
X115630734Y-99631128D01*
X115590624Y-99571081D01*
X115556909Y-99521552D01*
X115511627Y-99454968D01*
X115471783Y-99395296D01*
X115440243Y-99346915D01*
X115419874Y-99314207D01*
X115413750Y-99302856D01*
X115415358Y-99279607D01*
X115427824Y-99239388D01*
X115448643Y-99190089D01*
X115451466Y-99184178D01*
X115472945Y-99135383D01*
X115486935Y-99094852D01*
X115490814Y-99070376D01*
X115490376Y-99068608D01*
X115476657Y-99060143D01*
X115440483Y-99042456D01*
X115385479Y-99017101D01*
X115315275Y-98985631D01*
X115233498Y-98949600D01*
X115143777Y-98910561D01*
X115049738Y-98870066D01*
X114955011Y-98829671D01*
X114863223Y-98790927D01*
X114778001Y-98755388D01*
X114702975Y-98724608D01*
X114641771Y-98700140D01*
X114598018Y-98683536D01*
X114575344Y-98676351D01*
X114573805Y-98676178D01*
X114562069Y-98686749D01*
X114538154Y-98714976D01*
X114506397Y-98755631D01*
X114492315Y-98774410D01*
X114403989Y-98872753D01*
X114304237Y-98947614D01*
X114196243Y-98998763D01*
X114083190Y-99025971D01*
X113968263Y-99029007D01*
X113854644Y-99007643D01*
X113745517Y-98961649D01*
X113644066Y-98890796D01*
X113591063Y-98839382D01*
X113518683Y-98742065D01*
X113471161Y-98637528D01*
X113447109Y-98528917D01*
X113445137Y-98419383D01*
X113463855Y-98312073D01*
X113501876Y-98210136D01*
X113557808Y-98116720D01*
X113630263Y-98034974D01*
X113717851Y-97968047D01*
X113819184Y-97919086D01*
X113932871Y-97891241D01*
X114011781Y-97885956D01*
X114138182Y-97899295D01*
X114255012Y-97939042D01*
X114361501Y-98004787D01*
X114456875Y-98096120D01*
X114492315Y-98140501D01*
X114526012Y-98184698D01*
X114553621Y-98218580D01*
X114570804Y-98236920D01*
X114573805Y-98238733D01*
X114592484Y-98233365D01*
X114632869Y-98218295D01*
X114691331Y-98195078D01*
X114764242Y-98165270D01*
X114847975Y-98130425D01*
X114938902Y-98092097D01*
X115033394Y-98051841D01*
X115127823Y-98011212D01*
X115218562Y-97971764D01*
X115301982Y-97935052D01*
X115374456Y-97902631D01*
X115432355Y-97876055D01*
X115472051Y-97856878D01*
X115489917Y-97846656D01*
X115490525Y-97845913D01*
X115488218Y-97824515D01*
X115475209Y-97785755D01*
X115454125Y-97737149D01*
X115448432Y-97725414D01*
X115398670Y-97624900D01*
X115545013Y-97410997D01*
X115591507Y-97342410D01*
X115631908Y-97281612D01*
X115663695Y-97232496D01*
X115684346Y-97198955D01*
X115691355Y-97185030D01*
X115681809Y-97171774D01*
X115655213Y-97141969D01*
X115614632Y-97098864D01*
X115563128Y-97045706D01*
X115503766Y-96985744D01*
X115497145Y-96979128D01*
X115435780Y-96919041D01*
X115379931Y-96866534D01*
X115333068Y-96824694D01*
X115298660Y-96796610D01*
X115280174Y-96785369D01*
X115279417Y-96785289D01*
X115260579Y-96793006D01*
X115222948Y-96814407D01*
X115170767Y-96846867D01*
X115108275Y-96887764D01*
X115051373Y-96926400D01*
X114983905Y-96972248D01*
X114923645Y-97011880D01*
X114874723Y-97042684D01*
X114841269Y-97062048D01*
X114828129Y-97067564D01*
X114806365Y-97062326D01*
X114764755Y-97048171D01*
X114709299Y-97027517D01*
X114645998Y-97002782D01*
X114580852Y-96976385D01*
X114519859Y-96950743D01*
X114469021Y-96928276D01*
X114434338Y-96911401D01*
X114422907Y-96904233D01*
X114413944Y-96884863D01*
X114401393Y-96842378D01*
X114386424Y-96781483D01*
X114370208Y-96706881D01*
X114356677Y-96638113D01*
X114341178Y-96557369D01*
X114326868Y-96486014D01*
X114314746Y-96428785D01*
X114305811Y-96390416D01*
X114301375Y-96376010D01*
X114286148Y-96372624D01*
X114248161Y-96369520D01*
X114192468Y-96366775D01*
X114124123Y-96364464D01*
X114048178Y-96362664D01*
X113969687Y-96361452D01*
X113893703Y-96360904D01*
X113825279Y-96361095D01*
X113769469Y-96362103D01*
X113731325Y-96364004D01*
X113715901Y-96366874D01*
X113715800Y-96367165D01*
X113713143Y-96389016D01*
X113705871Y-96432018D01*
X113695030Y-96490962D01*
X113681665Y-96560634D01*
X113666824Y-96635825D01*
X113651553Y-96711322D01*
X113636897Y-96781915D01*
X113623903Y-96842392D01*
X113613618Y-96887542D01*
X113607087Y-96912153D01*
X113605803Y-96915041D01*
X113588300Y-96925290D01*
X113550592Y-96943482D01*
X113498570Y-96967095D01*
X113438126Y-96993607D01*
X113375151Y-97020494D01*
X113315537Y-97045236D01*
X113265176Y-97065308D01*
X113229957Y-97078189D01*
X113216727Y-97081622D01*
X113199970Y-97073988D01*
X113164021Y-97052759D01*
X113112862Y-97020451D01*
X113050476Y-96979577D01*
X112982022Y-96933456D01*
X112912134Y-96886538D01*
X112849168Y-96845736D01*
X112797202Y-96813578D01*
X112760317Y-96792589D01*
X112742762Y-96785289D01*
X112725141Y-96794889D01*
X112692676Y-96821213D01*
X112649038Y-96860547D01*
X112597898Y-96909175D01*
X112542925Y-96963384D01*
X112487790Y-97019458D01*
X112436164Y-97073683D01*
X112391717Y-97122344D01*
X112358120Y-97161727D01*
X112339043Y-97188117D01*
X112336226Y-97196715D01*
X112346245Y-97213917D01*
X112369675Y-97250316D01*
X112403860Y-97301905D01*
X112446146Y-97364678D01*
X112493465Y-97434027D01*
X112540650Y-97503551D01*
X112581740Y-97565600D01*
X112614226Y-97616263D01*
X112635600Y-97651628D01*
X112643355Y-97667782D01*
X112643355Y-97667817D01*
X112638120Y-97687576D01*
X112624070Y-97727075D01*
X112603686Y-97780244D01*
X112579450Y-97841008D01*
X112553844Y-97903295D01*
X112529349Y-97961033D01*
X112508447Y-98008149D01*
X112493619Y-98038571D01*
X112488699Y-98046256D01*
X112471296Y-98052825D01*
X112430585Y-98063344D01*
X112371043Y-98076809D01*
X112297145Y-98092212D01*
X112213368Y-98108547D01*
X112203120Y-98110474D01*
X111930744Y-98161488D01*
X111930744Y-98457456D01*
X111930744Y-98753423D01*
X112203120Y-98804437D01*
X112287761Y-98820815D01*
X112363047Y-98836380D01*
X112424502Y-98850123D01*
X112467648Y-98861040D01*
X112488012Y-98868123D01*
X112488699Y-98868655D01*
X112498737Y-98886268D01*
X112516325Y-98924186D01*
X112538982Y-98976338D01*
X112564226Y-99036652D01*
X112589577Y-99099054D01*
X112612551Y-99157471D01*
X112630667Y-99205833D01*
X112641444Y-99238064D01*
X112643355Y-99247095D01*
X112635701Y-99263106D01*
X112614410Y-99298353D01*
X112581991Y-99348926D01*
X112540951Y-99410911D01*
X112493799Y-99480398D01*
X112493465Y-99480885D01*
X112445768Y-99550790D01*
X112403539Y-99613486D01*
X112369432Y-99664965D01*
X112346103Y-99701221D01*
X112336226Y-99718196D01*
X112343420Y-99733709D01*
X112367613Y-99764724D01*
X112405134Y-99807527D01*
X112452314Y-99858401D01*
X112505481Y-99913634D01*
X112560966Y-99969509D01*
X112615097Y-100022313D01*
X112664204Y-100068332D01*
X112704618Y-100103849D01*
X112732666Y-100125152D01*
X112742762Y-100129622D01*
X112761004Y-100121964D01*
X112798306Y-100100672D01*
X112850588Y-100068273D01*
X112913771Y-100027293D01*
X112982022Y-99981456D01*
X113051568Y-99934608D01*
X113113803Y-99893855D01*
X113164744Y-99861708D01*
X113200410Y-99840682D01*
X113216727Y-99833289D01*
X113235847Y-99838720D01*
X113274757Y-99853331D01*
X113327565Y-99874601D01*
X113388381Y-99900006D01*
X113451312Y-99927024D01*
X113510466Y-99953134D01*
X113559954Y-99975811D01*
X113593882Y-99992535D01*
X113605803Y-99999870D01*
X113610625Y-100015267D01*
X113619600Y-100053192D01*
X113631684Y-100108433D01*
X113645828Y-100175779D01*
X113660988Y-100250019D01*
X113676117Y-100325941D01*
X113690169Y-100398335D01*
X113702097Y-100461989D01*
X113710855Y-100511692D01*
X113715397Y-100542233D01*
X113715800Y-100547746D01*
X113729059Y-100550702D01*
X113765467Y-100552682D01*
X113819972Y-100553763D01*
X113887520Y-100554021D01*
X113887520Y-100554021D01*
X113887520Y-100554021D01*
G37*
X113887520Y-100554021D02*
X113963057Y-100553533D01*
X114041532Y-100552374D01*
X114117890Y-100550621D01*
X114187078Y-100548351D01*
X114244043Y-100545640D01*
X114283732Y-100542563D01*
X114301091Y-100539198D01*
X114301375Y-100538902D01*
X114306678Y-100521057D01*
X114316047Y-100480184D01*
X114328484Y-100421017D01*
X114342988Y-100348290D01*
X114356677Y-100276798D01*
X114373039Y-100194409D01*
X114389123Y-100121832D01*
X114403759Y-100063773D01*
X114415776Y-100024934D01*
X114422907Y-100010678D01*
X114442783Y-99999131D01*
X114482996Y-99980307D01*
X114537544Y-99956622D01*
X114600429Y-99930496D01*
X114665650Y-99904347D01*
X114727208Y-99880593D01*
X114779101Y-99861653D01*
X114815331Y-99849945D01*
X114828129Y-99847348D01*
X114845357Y-99855055D01*
X114881530Y-99876400D01*
X114932518Y-99908773D01*
X114994192Y-99949560D01*
X115051373Y-99988511D01*
X115119248Y-100034439D01*
X115180380Y-100074116D01*
X115230520Y-100104918D01*
X115265419Y-100124218D01*
X115279788Y-100129622D01*
X115295629Y-100120109D01*
X115327217Y-100094050D01*
X115370732Y-100055161D01*
X115422348Y-100007162D01*
X115478243Y-99953770D01*
X115534594Y-99898704D01*
X115587578Y-99845681D01*
X115633371Y-99798419D01*
X115668150Y-99760637D01*
X115688092Y-99736053D01*
X115691355Y-99729373D01*
X115683740Y-99714355D01*
X115662653Y-99680247D01*
X115630734Y-99631128D01*
X115590624Y-99571081D01*
X115556909Y-99521552D01*
X115511627Y-99454968D01*
X115471783Y-99395296D01*
X115440243Y-99346915D01*
X115419874Y-99314207D01*
X115413750Y-99302856D01*
X115415358Y-99279607D01*
X115427824Y-99239388D01*
X115448643Y-99190089D01*
X115451466Y-99184178D01*
X115472945Y-99135383D01*
X115486935Y-99094852D01*
X115490814Y-99070376D01*
X115490376Y-99068608D01*
X115476657Y-99060143D01*
X115440483Y-99042456D01*
X115385479Y-99017101D01*
X115315275Y-98985631D01*
X115233498Y-98949600D01*
X115143777Y-98910561D01*
X115049738Y-98870066D01*
X114955011Y-98829671D01*
X114863223Y-98790927D01*
X114778001Y-98755388D01*
X114702975Y-98724608D01*
X114641771Y-98700140D01*
X114598018Y-98683536D01*
X114575344Y-98676351D01*
X114573805Y-98676178D01*
X114562069Y-98686749D01*
X114538154Y-98714976D01*
X114506397Y-98755631D01*
X114492315Y-98774410D01*
X114403989Y-98872753D01*
X114304237Y-98947614D01*
X114196243Y-98998763D01*
X114083190Y-99025971D01*
X113968263Y-99029007D01*
X113854644Y-99007643D01*
X113745517Y-98961649D01*
X113644066Y-98890796D01*
X113591063Y-98839382D01*
X113518683Y-98742065D01*
X113471161Y-98637528D01*
X113447109Y-98528917D01*
X113445137Y-98419383D01*
X113463855Y-98312073D01*
X113501876Y-98210136D01*
X113557808Y-98116720D01*
X113630263Y-98034974D01*
X113717851Y-97968047D01*
X113819184Y-97919086D01*
X113932871Y-97891241D01*
X114011781Y-97885956D01*
X114138182Y-97899295D01*
X114255012Y-97939042D01*
X114361501Y-98004787D01*
X114456875Y-98096120D01*
X114492315Y-98140501D01*
X114526012Y-98184698D01*
X114553621Y-98218580D01*
X114570804Y-98236920D01*
X114573805Y-98238733D01*
X114592484Y-98233365D01*
X114632869Y-98218295D01*
X114691331Y-98195078D01*
X114764242Y-98165270D01*
X114847975Y-98130425D01*
X114938902Y-98092097D01*
X115033394Y-98051841D01*
X115127823Y-98011212D01*
X115218562Y-97971764D01*
X115301982Y-97935052D01*
X115374456Y-97902631D01*
X115432355Y-97876055D01*
X115472051Y-97856878D01*
X115489917Y-97846656D01*
X115490525Y-97845913D01*
X115488218Y-97824515D01*
X115475209Y-97785755D01*
X115454125Y-97737149D01*
X115448432Y-97725414D01*
X115398670Y-97624900D01*
X115545013Y-97410997D01*
X115591507Y-97342410D01*
X115631908Y-97281612D01*
X115663695Y-97232496D01*
X115684346Y-97198955D01*
X115691355Y-97185030D01*
X115681809Y-97171774D01*
X115655213Y-97141969D01*
X115614632Y-97098864D01*
X115563128Y-97045706D01*
X115503766Y-96985744D01*
X115497145Y-96979128D01*
X115435780Y-96919041D01*
X115379931Y-96866534D01*
X115333068Y-96824694D01*
X115298660Y-96796610D01*
X115280174Y-96785369D01*
X115279417Y-96785289D01*
X115260579Y-96793006D01*
X115222948Y-96814407D01*
X115170767Y-96846867D01*
X115108275Y-96887764D01*
X115051373Y-96926400D01*
X114983905Y-96972248D01*
X114923645Y-97011880D01*
X114874723Y-97042684D01*
X114841269Y-97062048D01*
X114828129Y-97067564D01*
X114806365Y-97062326D01*
X114764755Y-97048171D01*
X114709299Y-97027517D01*
X114645998Y-97002782D01*
X114580852Y-96976385D01*
X114519859Y-96950743D01*
X114469021Y-96928276D01*
X114434338Y-96911401D01*
X114422907Y-96904233D01*
X114413944Y-96884863D01*
X114401393Y-96842378D01*
X114386424Y-96781483D01*
X114370208Y-96706881D01*
X114356677Y-96638113D01*
X114341178Y-96557369D01*
X114326868Y-96486014D01*
X114314746Y-96428785D01*
X114305811Y-96390416D01*
X114301375Y-96376010D01*
X114286148Y-96372624D01*
X114248161Y-96369520D01*
X114192468Y-96366775D01*
X114124123Y-96364464D01*
X114048178Y-96362664D01*
X113969687Y-96361452D01*
X113893703Y-96360904D01*
X113825279Y-96361095D01*
X113769469Y-96362103D01*
X113731325Y-96364004D01*
X113715901Y-96366874D01*
X113715800Y-96367165D01*
X113713143Y-96389016D01*
X113705871Y-96432018D01*
X113695030Y-96490962D01*
X113681665Y-96560634D01*
X113666824Y-96635825D01*
X113651553Y-96711322D01*
X113636897Y-96781915D01*
X113623903Y-96842392D01*
X113613618Y-96887542D01*
X113607087Y-96912153D01*
X113605803Y-96915041D01*
X113588300Y-96925290D01*
X113550592Y-96943482D01*
X113498570Y-96967095D01*
X113438126Y-96993607D01*
X113375151Y-97020494D01*
X113315537Y-97045236D01*
X113265176Y-97065308D01*
X113229957Y-97078189D01*
X113216727Y-97081622D01*
X113199970Y-97073988D01*
X113164021Y-97052759D01*
X113112862Y-97020451D01*
X113050476Y-96979577D01*
X112982022Y-96933456D01*
X112912134Y-96886538D01*
X112849168Y-96845736D01*
X112797202Y-96813578D01*
X112760317Y-96792589D01*
X112742762Y-96785289D01*
X112725141Y-96794889D01*
X112692676Y-96821213D01*
X112649038Y-96860547D01*
X112597898Y-96909175D01*
X112542925Y-96963384D01*
X112487790Y-97019458D01*
X112436164Y-97073683D01*
X112391717Y-97122344D01*
X112358120Y-97161727D01*
X112339043Y-97188117D01*
X112336226Y-97196715D01*
X112346245Y-97213917D01*
X112369675Y-97250316D01*
X112403860Y-97301905D01*
X112446146Y-97364678D01*
X112493465Y-97434027D01*
X112540650Y-97503551D01*
X112581740Y-97565600D01*
X112614226Y-97616263D01*
X112635600Y-97651628D01*
X112643355Y-97667782D01*
X112643355Y-97667817D01*
X112638120Y-97687576D01*
X112624070Y-97727075D01*
X112603686Y-97780244D01*
X112579450Y-97841008D01*
X112553844Y-97903295D01*
X112529349Y-97961033D01*
X112508447Y-98008149D01*
X112493619Y-98038571D01*
X112488699Y-98046256D01*
X112471296Y-98052825D01*
X112430585Y-98063344D01*
X112371043Y-98076809D01*
X112297145Y-98092212D01*
X112213368Y-98108547D01*
X112203120Y-98110474D01*
X111930744Y-98161488D01*
X111930744Y-98457456D01*
X111930744Y-98753423D01*
X112203120Y-98804437D01*
X112287761Y-98820815D01*
X112363047Y-98836380D01*
X112424502Y-98850123D01*
X112467648Y-98861040D01*
X112488012Y-98868123D01*
X112488699Y-98868655D01*
X112498737Y-98886268D01*
X112516325Y-98924186D01*
X112538982Y-98976338D01*
X112564226Y-99036652D01*
X112589577Y-99099054D01*
X112612551Y-99157471D01*
X112630667Y-99205833D01*
X112641444Y-99238064D01*
X112643355Y-99247095D01*
X112635701Y-99263106D01*
X112614410Y-99298353D01*
X112581991Y-99348926D01*
X112540951Y-99410911D01*
X112493799Y-99480398D01*
X112493465Y-99480885D01*
X112445768Y-99550790D01*
X112403539Y-99613486D01*
X112369432Y-99664965D01*
X112346103Y-99701221D01*
X112336226Y-99718196D01*
X112343420Y-99733709D01*
X112367613Y-99764724D01*
X112405134Y-99807527D01*
X112452314Y-99858401D01*
X112505481Y-99913634D01*
X112560966Y-99969509D01*
X112615097Y-100022313D01*
X112664204Y-100068332D01*
X112704618Y-100103849D01*
X112732666Y-100125152D01*
X112742762Y-100129622D01*
X112761004Y-100121964D01*
X112798306Y-100100672D01*
X112850588Y-100068273D01*
X112913771Y-100027293D01*
X112982022Y-99981456D01*
X113051568Y-99934608D01*
X113113803Y-99893855D01*
X113164744Y-99861708D01*
X113200410Y-99840682D01*
X113216727Y-99833289D01*
X113235847Y-99838720D01*
X113274757Y-99853331D01*
X113327565Y-99874601D01*
X113388381Y-99900006D01*
X113451312Y-99927024D01*
X113510466Y-99953134D01*
X113559954Y-99975811D01*
X113593882Y-99992535D01*
X113605803Y-99999870D01*
X113610625Y-100015267D01*
X113619600Y-100053192D01*
X113631684Y-100108433D01*
X113645828Y-100175779D01*
X113660988Y-100250019D01*
X113676117Y-100325941D01*
X113690169Y-100398335D01*
X113702097Y-100461989D01*
X113710855Y-100511692D01*
X113715397Y-100542233D01*
X113715800Y-100547746D01*
X113729059Y-100550702D01*
X113765467Y-100552682D01*
X113819972Y-100553763D01*
X113887520Y-100554021D01*
X113887520Y-100554021D01*
D15*
X116938486Y-93861643D02*
X116868200Y-93885071D01*
X116751057Y-93885071D01*
X116704200Y-93861643D01*
X116680771Y-93838214D01*
X116657343Y-93791357D01*
X116657343Y-93744500D01*
X116680771Y-93697643D01*
X116704200Y-93674214D01*
X116751057Y-93650786D01*
X116844771Y-93627357D01*
X116891629Y-93603929D01*
X116915057Y-93580500D01*
X116938486Y-93533643D01*
X116938486Y-93486786D01*
X116915057Y-93439929D01*
X116891629Y-93416500D01*
X116844771Y-93393071D01*
X116727629Y-93393071D01*
X116657343Y-93416500D01*
X116493343Y-93393071D02*
X116376200Y-93885071D01*
X116282486Y-93533643D01*
X116188772Y-93885071D01*
X116071629Y-93393071D01*
X115884200Y-93885071D02*
X115884200Y-93393071D01*
X115767057Y-93393071D01*
X115696772Y-93416500D01*
X115649914Y-93463357D01*
X115626486Y-93510214D01*
X115603057Y-93603929D01*
X115603057Y-93674214D01*
X115626486Y-93767929D01*
X115649914Y-93814786D01*
X115696772Y-93861643D01*
X115767057Y-93885071D01*
X115884200Y-93885071D01*
X115509343Y-93931929D02*
X115134486Y-93931929D01*
X114736200Y-93838214D02*
X114759629Y-93861643D01*
X114829915Y-93885071D01*
X114876772Y-93885071D01*
X114947057Y-93861643D01*
X114993915Y-93814786D01*
X115017343Y-93767929D01*
X115040772Y-93674214D01*
X115040772Y-93603929D01*
X115017343Y-93510214D01*
X114993915Y-93463357D01*
X114947057Y-93416500D01*
X114876772Y-93393071D01*
X114829915Y-93393071D01*
X114759629Y-93416500D01*
X114736200Y-93439929D01*
X114291057Y-93885071D02*
X114525343Y-93885071D01*
X114525343Y-93393071D01*
X114127057Y-93885071D02*
X114127057Y-93393071D01*
X113845914Y-93885071D02*
X114056771Y-93603929D01*
X113845914Y-93393071D02*
X114127057Y-93674214D01*
D16*
X125164366Y-99082921D02*
X125164366Y-98849483D01*
X124674146Y-98849483D01*
X124907584Y-99246328D02*
X124907584Y-99409735D01*
X125164366Y-99479766D02*
X125164366Y-99246328D01*
X124674146Y-99246328D01*
X124674146Y-99479766D01*
X125164366Y-99689860D02*
X124674146Y-99689860D01*
X124674146Y-99806579D01*
X124697490Y-99876611D01*
X124744178Y-99923298D01*
X124790865Y-99946642D01*
X124884240Y-99969986D01*
X124954272Y-99969986D01*
X125047647Y-99946642D01*
X125094335Y-99923298D01*
X125141022Y-99876611D01*
X125164366Y-99806579D01*
X125164366Y-99689860D01*
X125164366Y-100436862D02*
X125164366Y-100156736D01*
X125164366Y-100296799D02*
X124674146Y-100296799D01*
X124744178Y-100250111D01*
X124790865Y-100203424D01*
X124814209Y-100156736D01*
D15*
X123022171Y-91065143D02*
X123420457Y-91065143D01*
X123467314Y-91088571D01*
X123490743Y-91112000D01*
X123514171Y-91158857D01*
X123514171Y-91252571D01*
X123490743Y-91299429D01*
X123467314Y-91322857D01*
X123420457Y-91346286D01*
X123022171Y-91346286D01*
X123514171Y-91838286D02*
X123514171Y-91557143D01*
X123514171Y-91697715D02*
X123022171Y-91697715D01*
X123092457Y-91650858D01*
X123139314Y-91604000D01*
X123162743Y-91557143D01*
X115136114Y-90240401D02*
X115159543Y-90216972D01*
X115182971Y-90146686D01*
X115182971Y-90099829D01*
X115159543Y-90029544D01*
X115112686Y-89982686D01*
X115065829Y-89959258D01*
X114972114Y-89935829D01*
X114901829Y-89935829D01*
X114808114Y-89959258D01*
X114761257Y-89982686D01*
X114714400Y-90029544D01*
X114690971Y-90099829D01*
X114690971Y-90146686D01*
X114714400Y-90216972D01*
X114737829Y-90240401D01*
X114737829Y-90427829D02*
X114714400Y-90451258D01*
X114690971Y-90498115D01*
X114690971Y-90615258D01*
X114714400Y-90662115D01*
X114737829Y-90685544D01*
X114784686Y-90708972D01*
X114831543Y-90708972D01*
X114901829Y-90685544D01*
X115182971Y-90404401D01*
X115182971Y-90708972D01*
X116769599Y-98524514D02*
X116793028Y-98547943D01*
X116863314Y-98571371D01*
X116910171Y-98571371D01*
X116980456Y-98547943D01*
X117027314Y-98501086D01*
X117050742Y-98454229D01*
X117074171Y-98360514D01*
X117074171Y-98290229D01*
X117050742Y-98196514D01*
X117027314Y-98149657D01*
X116980456Y-98102800D01*
X116910171Y-98079371D01*
X116863314Y-98079371D01*
X116793028Y-98102800D01*
X116769599Y-98126229D01*
X116301028Y-98571371D02*
X116582171Y-98571371D01*
X116441599Y-98571371D02*
X116441599Y-98079371D01*
X116488456Y-98149657D01*
X116535314Y-98196514D01*
X116582171Y-98219943D01*
X121075771Y-98470001D02*
X120841486Y-98306001D01*
X121075771Y-98188858D02*
X120583771Y-98188858D01*
X120583771Y-98376286D01*
X120607200Y-98423144D01*
X120630629Y-98446572D01*
X120677486Y-98470001D01*
X120747771Y-98470001D01*
X120794629Y-98446572D01*
X120818057Y-98423144D01*
X120841486Y-98376286D01*
X120841486Y-98188858D01*
X120583771Y-98634001D02*
X120583771Y-98938572D01*
X120771200Y-98774572D01*
X120771200Y-98844858D01*
X120794629Y-98891715D01*
X120818057Y-98915144D01*
X120864914Y-98938572D01*
X120982057Y-98938572D01*
X121028914Y-98915144D01*
X121052343Y-98891715D01*
X121075771Y-98844858D01*
X121075771Y-98704286D01*
X121052343Y-98657429D01*
X121028914Y-98634001D01*
X121075771Y-99740001D02*
X120841486Y-99576001D01*
X121075771Y-99458858D02*
X120583771Y-99458858D01*
X120583771Y-99646286D01*
X120607200Y-99693144D01*
X120630629Y-99716572D01*
X120677486Y-99740001D01*
X120747771Y-99740001D01*
X120794629Y-99716572D01*
X120818057Y-99693144D01*
X120841486Y-99646286D01*
X120841486Y-99458858D01*
X120630629Y-99927429D02*
X120607200Y-99950858D01*
X120583771Y-99997715D01*
X120583771Y-100114858D01*
X120607200Y-100161715D01*
X120630629Y-100185144D01*
X120677486Y-100208572D01*
X120724343Y-100208572D01*
X120794629Y-100185144D01*
X121075771Y-99904001D01*
X121075771Y-100208572D01*
X122560799Y-100501771D02*
X122724799Y-100267486D01*
X122841942Y-100501771D02*
X122841942Y-100009771D01*
X122654514Y-100009771D01*
X122607656Y-100033200D01*
X122584228Y-100056629D01*
X122560799Y-100103486D01*
X122560799Y-100173771D01*
X122584228Y-100220629D01*
X122607656Y-100244057D01*
X122654514Y-100267486D01*
X122841942Y-100267486D01*
X122092228Y-100501771D02*
X122373371Y-100501771D01*
X122232799Y-100501771D02*
X122232799Y-100009771D01*
X122279656Y-100080057D01*
X122326514Y-100126914D01*
X122373371Y-100150343D01*
M02*
