%FSLAX46Y46*%
G04 Gerber Fmt 4.6, Leading zero omitted, Abs format (unit mm)*
G04 Created by KiCad (PCBNEW (2014-10-18 BZR 5203)-product) date 3/11/2015 2:43:32 PM*
%MOMM*%
G01*
G04 APERTURE LIST*
%ADD10C,0.100000*%
%ADD11R,3.810000X1.524000*%
%ADD12R,0.250000X0.700000*%
%ADD13R,0.700000X0.250000*%
%ADD14R,1.725000X1.725000*%
%ADD15R,0.797560X0.797560*%
%ADD16R,0.698500X0.899160*%
%ADD17R,0.899160X0.698500*%
%ADD18C,0.685800*%
%ADD19C,0.254000*%
G04 APERTURE END LIST*
D10*
D11*
X126136400Y-93319600D03*
X126136400Y-95859600D03*
X126136400Y-98399600D03*
X126136400Y-90779600D03*
D12*
X117249000Y-94374000D03*
X117749000Y-94374000D03*
X118249000Y-94374000D03*
X118749000Y-94374000D03*
X119249000Y-94374000D03*
X119749000Y-94374000D03*
X120249000Y-94374000D03*
X120749000Y-94374000D03*
D13*
X121399000Y-95024000D03*
X121399000Y-95524000D03*
X121399000Y-96024000D03*
X121399000Y-96524000D03*
X121399000Y-97024000D03*
X121399000Y-97524000D03*
X121399000Y-98024000D03*
X121399000Y-98524000D03*
D12*
X120749000Y-99174000D03*
X120249000Y-99174000D03*
X119749000Y-99174000D03*
X119249000Y-99174000D03*
X118749000Y-99174000D03*
X118249000Y-99174000D03*
X117749000Y-99174000D03*
X117249000Y-99174000D03*
D13*
X116599000Y-98524000D03*
X116599000Y-98024000D03*
X116599000Y-97524000D03*
X116599000Y-97024000D03*
X116599000Y-96524000D03*
X116599000Y-96024000D03*
X116599000Y-95524000D03*
X116599000Y-95024000D03*
D14*
X119861500Y-97636500D03*
X118136500Y-97636500D03*
X119861500Y-95911500D03*
X118136500Y-95911500D03*
D15*
X121970800Y-89979500D03*
X120472200Y-89979500D03*
D16*
X119849900Y-91643200D03*
X121145300Y-91643200D03*
D17*
X122732800Y-98158300D03*
X122732800Y-99453700D03*
D16*
X116395500Y-91948000D03*
X117690900Y-91948000D03*
X116395500Y-90525600D03*
X117690900Y-90525600D03*
D18*
X119062500Y-90678000D03*
X120650000Y-93065600D03*
X123748800Y-97688400D03*
X116490750Y-93122750D03*
X121475500Y-93281500D03*
X108013500Y-91376500D03*
X115824000Y-100076000D03*
X123698000Y-98996500D03*
X123545600Y-91694000D03*
X123444000Y-93027500D03*
X128333500Y-97155000D03*
X119786400Y-93065600D03*
X114300000Y-95910400D03*
X114249200Y-93878400D03*
D19*
X119849900Y-91643200D02*
X119849900Y-91757500D01*
X119849900Y-91643200D02*
X119849900Y-91986100D01*
X119849900Y-91643200D02*
X119849900Y-92062300D01*
X119849900Y-91643200D02*
X119849900Y-91554300D01*
X122732800Y-98158300D02*
X123177300Y-98158300D01*
X119849900Y-92265500D02*
X120650000Y-93065600D01*
X123748800Y-97688400D02*
X123278900Y-98158300D01*
X123278900Y-98158300D02*
X122732800Y-98158300D01*
X119849900Y-91643200D02*
X119849900Y-92265500D01*
X120650000Y-93218000D02*
X120249000Y-93619000D01*
X120249000Y-93619000D02*
X120249000Y-94374000D01*
X120650000Y-93065600D02*
X120650000Y-93218000D01*
X119672100Y-92265500D02*
X119126000Y-92811600D01*
X119126000Y-92811600D02*
X119126000Y-93421200D01*
X119126000Y-93421200D02*
X119249000Y-93544200D01*
X119249000Y-93544200D02*
X119249000Y-94374000D01*
X119849900Y-92265500D02*
X119672100Y-92265500D01*
X122135900Y-98158300D02*
X122001600Y-98024000D01*
X122001600Y-98024000D02*
X121399000Y-98024000D01*
X122732800Y-98158300D02*
X122135900Y-98158300D01*
X120624600Y-90868500D02*
X119849900Y-91643200D01*
X121158000Y-90868500D02*
X120624600Y-90868500D01*
X121970800Y-90055700D02*
X121158000Y-90868500D01*
X121970800Y-89979500D02*
X121970800Y-90055700D01*
X121145300Y-91643200D02*
X121310400Y-91643200D01*
X120749000Y-94374000D02*
X120814800Y-94374000D01*
X120749000Y-94374000D02*
X120749000Y-94071500D01*
X122732800Y-99453700D02*
X122796300Y-99453700D01*
X121803100Y-98524000D02*
X122732800Y-99453700D01*
X121399000Y-98524000D02*
X121803100Y-98524000D01*
X122732800Y-99453700D02*
X122948700Y-99453700D01*
X117749000Y-94374000D02*
X117749000Y-93682500D01*
X117411500Y-93345000D02*
X117749000Y-93682500D01*
X116713000Y-93345000D02*
X117411500Y-93345000D01*
X116713000Y-93345000D02*
X116490750Y-93122750D01*
X117749000Y-95524000D02*
X118136500Y-95911500D01*
X117749000Y-94374000D02*
X117749000Y-95524000D01*
X120749000Y-95024000D02*
X119861500Y-95911500D01*
X120749000Y-94374000D02*
X120749000Y-95024000D01*
X120749000Y-98524000D02*
X119861500Y-97636500D01*
X121399000Y-98524000D02*
X120749000Y-98524000D01*
X119861500Y-95911500D02*
X119861500Y-97636500D01*
X118136500Y-95911500D02*
X119861500Y-95911500D01*
X118136500Y-97636500D02*
X118136500Y-95911500D01*
X119861500Y-97636500D02*
X118136500Y-97636500D01*
X120749000Y-94008000D02*
X121475500Y-93281500D01*
X120749000Y-94374000D02*
X120749000Y-94008000D01*
X121475500Y-91973400D02*
X121145300Y-91643200D01*
X121475500Y-93281500D02*
X121475500Y-91973400D01*
X107251500Y-100076000D02*
X107124500Y-99949000D01*
X107124500Y-99949000D02*
X107124500Y-92265500D01*
X107124500Y-92265500D02*
X108013500Y-91376500D01*
X115824000Y-100076000D02*
X107251500Y-100076000D01*
X123240800Y-99453700D02*
X123698000Y-98996500D01*
X122732800Y-99453700D02*
X123240800Y-99453700D01*
X123698000Y-98869500D02*
X124167900Y-98399600D01*
X124167900Y-98399600D02*
X126136400Y-98399600D01*
X123698000Y-98996500D02*
X123698000Y-98869500D01*
X118249000Y-92950600D02*
X118249000Y-94374000D01*
X117690900Y-92392500D02*
X118249000Y-92950600D01*
X117690900Y-91948000D02*
X117690900Y-92392500D01*
X117868700Y-90525600D02*
X117690900Y-90525600D01*
X118749000Y-93641798D02*
X118668800Y-93561598D01*
X118668800Y-93561598D02*
X118668800Y-91503500D01*
X118668800Y-91503500D02*
X117690900Y-90525600D01*
X118749000Y-94374000D02*
X118749000Y-93641798D01*
X123545600Y-91694000D02*
X122783600Y-92456000D01*
X122783600Y-92456000D02*
X122783600Y-95250000D01*
X122783600Y-95250000D02*
X122009600Y-96024000D01*
X122009600Y-96024000D02*
X121399000Y-96024000D01*
X121798400Y-95524000D02*
X122275600Y-95046800D01*
X122275600Y-95046800D02*
X122275600Y-91897200D01*
X122275600Y-91897200D02*
X123393200Y-90779600D01*
X123393200Y-90779600D02*
X126136400Y-90779600D01*
X121399000Y-95524000D02*
X121798400Y-95524000D01*
X122297000Y-96524000D02*
X123317000Y-95504000D01*
X123317000Y-95504000D02*
X123317000Y-93154500D01*
X123317000Y-93154500D02*
X123444000Y-93027500D01*
X121399000Y-96524000D02*
X122297000Y-96524000D01*
X124561600Y-93319600D02*
X126136400Y-93319600D01*
X124663200Y-93319600D02*
X126136400Y-93319600D01*
X124815600Y-93319600D02*
X126136400Y-93319600D01*
X124688598Y-93319600D02*
X126136400Y-93319600D01*
X122584400Y-97024000D02*
X123850400Y-95758000D01*
X123850400Y-95758000D02*
X123850400Y-94157798D01*
X123850400Y-94157798D02*
X124688598Y-93319600D01*
X121399000Y-97024000D02*
X122584400Y-97024000D01*
X128333500Y-97155000D02*
X128397000Y-97218500D01*
X128397000Y-97218500D02*
X128397000Y-99441000D01*
X128397000Y-99441000D02*
X127698500Y-100139500D01*
X127698500Y-100139500D02*
X120205500Y-100139500D01*
X120205500Y-100139500D02*
X119749000Y-99683000D01*
X119749000Y-99683000D02*
X119749000Y-99174000D01*
X124561600Y-95859600D02*
X126136400Y-95859600D01*
X122897200Y-97524000D02*
X124561600Y-95859600D01*
X121399000Y-97524000D02*
X122897200Y-97524000D01*
X119749000Y-94374000D02*
X119749000Y-93103000D01*
X119749000Y-93103000D02*
X119786400Y-93065600D01*
X113131600Y-90525600D02*
X111099600Y-92557600D01*
X111099600Y-92557600D02*
X111099600Y-95148400D01*
X111099600Y-95148400D02*
X111861600Y-95910400D01*
X111861600Y-95910400D02*
X114300000Y-95910400D01*
X116395500Y-90525600D02*
X113131600Y-90525600D01*
X116027200Y-91948000D02*
X115316000Y-91236800D01*
X115316000Y-91236800D02*
X113334800Y-91236800D01*
X113334800Y-91236800D02*
X111658400Y-92913200D01*
X111658400Y-92913200D02*
X111658400Y-94742000D01*
X111658400Y-94742000D02*
X111709200Y-94792800D01*
X111709200Y-94792800D02*
X113487200Y-94792800D01*
X113487200Y-94792800D02*
X114249200Y-94030800D01*
X114249200Y-94030800D02*
X114249200Y-93878400D01*
X116395500Y-91948000D02*
X116027200Y-91948000D01*
X118618000Y-89979500D02*
X118237000Y-89598500D01*
X118237000Y-89598500D02*
X113157000Y-89598500D01*
X113157000Y-89598500D02*
X110426500Y-92329000D01*
X110426500Y-92329000D02*
X110426500Y-95631000D01*
X110426500Y-95631000D02*
X111887000Y-97091500D01*
X111887000Y-97091500D02*
X114935000Y-97091500D01*
X114935000Y-97091500D02*
X115570000Y-96456500D01*
X115570000Y-96456500D02*
X115570000Y-94869000D01*
X115570000Y-94869000D02*
X116065000Y-94374000D01*
X116065000Y-94374000D02*
X117249000Y-94374000D01*
X120472200Y-89979500D02*
X118618000Y-89979500D01*
G36*
X117741000Y-93389000D02*
X117621998Y-93389000D01*
X117621998Y-93483248D01*
X117527750Y-93389000D01*
X117497690Y-93389000D01*
X117264301Y-93485673D01*
X117106974Y-93643000D01*
X117048214Y-93643000D01*
X116908180Y-93701004D01*
X116801004Y-93808181D01*
X116777054Y-93866000D01*
X116065000Y-93866000D01*
X115870597Y-93904669D01*
X115705790Y-94014790D01*
X115210790Y-94509790D01*
X115100669Y-94674597D01*
X115062000Y-94869000D01*
X115062000Y-96246079D01*
X114724579Y-96583500D01*
X114566608Y-96583500D01*
X114709521Y-96524450D01*
X114913335Y-96320992D01*
X115023774Y-96055024D01*
X115024025Y-95767039D01*
X114914050Y-95500879D01*
X114710592Y-95297065D01*
X114444624Y-95186626D01*
X114156639Y-95186375D01*
X113890479Y-95296350D01*
X113784243Y-95402400D01*
X112072020Y-95402400D01*
X111970420Y-95300800D01*
X113487200Y-95300800D01*
X113681603Y-95262131D01*
X113846410Y-95152010D01*
X114398412Y-94600007D01*
X114658721Y-94492450D01*
X114862535Y-94288992D01*
X114972974Y-94023024D01*
X114973225Y-93735039D01*
X114863250Y-93468879D01*
X114659792Y-93265065D01*
X114393824Y-93154626D01*
X114105839Y-93154375D01*
X113839679Y-93264350D01*
X113635865Y-93467808D01*
X113525426Y-93733776D01*
X113525175Y-94021761D01*
X113529456Y-94032123D01*
X113276780Y-94284800D01*
X112166400Y-94284800D01*
X112166400Y-93123620D01*
X113545220Y-91744800D01*
X115105580Y-91744800D01*
X115665250Y-92304470D01*
X115665250Y-92473366D01*
X115723254Y-92613400D01*
X115830431Y-92720576D01*
X115970465Y-92778580D01*
X116122036Y-92778580D01*
X116820536Y-92778580D01*
X116960570Y-92720576D01*
X117043199Y-92637945D01*
X117125831Y-92720576D01*
X117265865Y-92778580D01*
X117358559Y-92778580D01*
X117741000Y-93161020D01*
X117741000Y-93389000D01*
X117741000Y-93389000D01*
G37*
X117741000Y-93389000D02*
X117621998Y-93389000D01*
X117621998Y-93483248D01*
X117527750Y-93389000D01*
X117497690Y-93389000D01*
X117264301Y-93485673D01*
X117106974Y-93643000D01*
X117048214Y-93643000D01*
X116908180Y-93701004D01*
X116801004Y-93808181D01*
X116777054Y-93866000D01*
X116065000Y-93866000D01*
X115870597Y-93904669D01*
X115705790Y-94014790D01*
X115210790Y-94509790D01*
X115100669Y-94674597D01*
X115062000Y-94869000D01*
X115062000Y-96246079D01*
X114724579Y-96583500D01*
X114566608Y-96583500D01*
X114709521Y-96524450D01*
X114913335Y-96320992D01*
X115023774Y-96055024D01*
X115024025Y-95767039D01*
X114914050Y-95500879D01*
X114710592Y-95297065D01*
X114444624Y-95186626D01*
X114156639Y-95186375D01*
X113890479Y-95296350D01*
X113784243Y-95402400D01*
X112072020Y-95402400D01*
X111970420Y-95300800D01*
X113487200Y-95300800D01*
X113681603Y-95262131D01*
X113846410Y-95152010D01*
X114398412Y-94600007D01*
X114658721Y-94492450D01*
X114862535Y-94288992D01*
X114972974Y-94023024D01*
X114973225Y-93735039D01*
X114863250Y-93468879D01*
X114659792Y-93265065D01*
X114393824Y-93154626D01*
X114105839Y-93154375D01*
X113839679Y-93264350D01*
X113635865Y-93467808D01*
X113525426Y-93733776D01*
X113525175Y-94021761D01*
X113529456Y-94032123D01*
X113276780Y-94284800D01*
X112166400Y-94284800D01*
X112166400Y-93123620D01*
X113545220Y-91744800D01*
X115105580Y-91744800D01*
X115665250Y-92304470D01*
X115665250Y-92473366D01*
X115723254Y-92613400D01*
X115830431Y-92720576D01*
X115970465Y-92778580D01*
X116122036Y-92778580D01*
X116820536Y-92778580D01*
X116960570Y-92720576D01*
X117043199Y-92637945D01*
X117125831Y-92720576D01*
X117265865Y-92778580D01*
X117358559Y-92778580D01*
X117741000Y-93161020D01*
X117741000Y-93389000D01*
G36*
X119741079Y-100393500D02*
X106934000Y-100393500D01*
X106934000Y-89408000D01*
X112629079Y-89408000D01*
X110067290Y-91969790D01*
X109957169Y-92134597D01*
X109918500Y-92329000D01*
X109918500Y-95631000D01*
X109957169Y-95825403D01*
X110067290Y-95990210D01*
X111527790Y-97450710D01*
X111692597Y-97560831D01*
X111887000Y-97599500D01*
X114935000Y-97599500D01*
X115129403Y-97560831D01*
X115294210Y-97450710D01*
X115868000Y-96876920D01*
X115868000Y-96974786D01*
X115868000Y-97224786D01*
X115888385Y-97274000D01*
X115868000Y-97323215D01*
X115868000Y-97474786D01*
X115868000Y-97724786D01*
X115888385Y-97774000D01*
X115868000Y-97823215D01*
X115868000Y-97974786D01*
X115868000Y-98224786D01*
X115888385Y-98274000D01*
X115868000Y-98323215D01*
X115868000Y-98474786D01*
X115868000Y-98724786D01*
X115926004Y-98864820D01*
X116033181Y-98971996D01*
X116173215Y-99030000D01*
X116324786Y-99030000D01*
X116743000Y-99030000D01*
X116743000Y-99599786D01*
X116801004Y-99739820D01*
X116908181Y-99846996D01*
X117048215Y-99905000D01*
X117199786Y-99905000D01*
X117449786Y-99905000D01*
X117499000Y-99884614D01*
X117548215Y-99905000D01*
X117699786Y-99905000D01*
X117949786Y-99905000D01*
X117999000Y-99884614D01*
X118048215Y-99905000D01*
X118199786Y-99905000D01*
X118449786Y-99905000D01*
X118499000Y-99884614D01*
X118548215Y-99905000D01*
X118699786Y-99905000D01*
X118949786Y-99905000D01*
X118999000Y-99884614D01*
X119048215Y-99905000D01*
X119199786Y-99905000D01*
X119298108Y-99905000D01*
X119389790Y-100042210D01*
X119741079Y-100393500D01*
X119741079Y-100393500D01*
G37*
X119741079Y-100393500D02*
X106934000Y-100393500D01*
X106934000Y-89408000D01*
X112629079Y-89408000D01*
X110067290Y-91969790D01*
X109957169Y-92134597D01*
X109918500Y-92329000D01*
X109918500Y-95631000D01*
X109957169Y-95825403D01*
X110067290Y-95990210D01*
X111527790Y-97450710D01*
X111692597Y-97560831D01*
X111887000Y-97599500D01*
X114935000Y-97599500D01*
X115129403Y-97560831D01*
X115294210Y-97450710D01*
X115868000Y-96876920D01*
X115868000Y-96974786D01*
X115868000Y-97224786D01*
X115888385Y-97274000D01*
X115868000Y-97323215D01*
X115868000Y-97474786D01*
X115868000Y-97724786D01*
X115888385Y-97774000D01*
X115868000Y-97823215D01*
X115868000Y-97974786D01*
X115868000Y-98224786D01*
X115888385Y-98274000D01*
X115868000Y-98323215D01*
X115868000Y-98474786D01*
X115868000Y-98724786D01*
X115926004Y-98864820D01*
X116033181Y-98971996D01*
X116173215Y-99030000D01*
X116324786Y-99030000D01*
X116743000Y-99030000D01*
X116743000Y-99599786D01*
X116801004Y-99739820D01*
X116908181Y-99846996D01*
X117048215Y-99905000D01*
X117199786Y-99905000D01*
X117449786Y-99905000D01*
X117499000Y-99884614D01*
X117548215Y-99905000D01*
X117699786Y-99905000D01*
X117949786Y-99905000D01*
X117999000Y-99884614D01*
X118048215Y-99905000D01*
X118199786Y-99905000D01*
X118449786Y-99905000D01*
X118499000Y-99884614D01*
X118548215Y-99905000D01*
X118699786Y-99905000D01*
X118949786Y-99905000D01*
X118999000Y-99884614D01*
X119048215Y-99905000D01*
X119199786Y-99905000D01*
X119298108Y-99905000D01*
X119389790Y-100042210D01*
X119741079Y-100393500D01*
G36*
X120008500Y-97763500D02*
X119988500Y-97763500D01*
X119988500Y-97783500D01*
X119734500Y-97783500D01*
X119734500Y-97763500D01*
X119734500Y-97509500D01*
X119734500Y-97250250D01*
X119734500Y-96297750D01*
X119734500Y-96038500D01*
X119475250Y-96038500D01*
X118522750Y-96038500D01*
X118263500Y-96038500D01*
X118263500Y-96297750D01*
X118263500Y-97250250D01*
X118263500Y-97509500D01*
X118522750Y-97509500D01*
X119475250Y-97509500D01*
X119734500Y-97509500D01*
X119734500Y-97763500D01*
X119475250Y-97763500D01*
X118522750Y-97763500D01*
X118263500Y-97763500D01*
X118263500Y-97783500D01*
X118009500Y-97783500D01*
X118009500Y-97763500D01*
X117989500Y-97763500D01*
X117989500Y-97509500D01*
X118009500Y-97509500D01*
X118009500Y-97250250D01*
X118009500Y-96297750D01*
X118009500Y-96038500D01*
X117989500Y-96038500D01*
X117989500Y-95784500D01*
X118009500Y-95784500D01*
X118009500Y-95764500D01*
X118263500Y-95764500D01*
X118263500Y-95784500D01*
X118522750Y-95784500D01*
X119475250Y-95784500D01*
X119734500Y-95784500D01*
X119734500Y-95764500D01*
X119988500Y-95764500D01*
X119988500Y-95784500D01*
X120008500Y-95784500D01*
X120008500Y-96038500D01*
X119988500Y-96038500D01*
X119988500Y-96297750D01*
X119988500Y-97250250D01*
X119988500Y-97509500D01*
X120008500Y-97509500D01*
X120008500Y-97763500D01*
X120008500Y-97763500D01*
G37*
X120008500Y-97763500D02*
X119988500Y-97763500D01*
X119988500Y-97783500D01*
X119734500Y-97783500D01*
X119734500Y-97763500D01*
X119734500Y-97509500D01*
X119734500Y-97250250D01*
X119734500Y-96297750D01*
X119734500Y-96038500D01*
X119475250Y-96038500D01*
X118522750Y-96038500D01*
X118263500Y-96038500D01*
X118263500Y-96297750D01*
X118263500Y-97250250D01*
X118263500Y-97509500D01*
X118522750Y-97509500D01*
X119475250Y-97509500D01*
X119734500Y-97509500D01*
X119734500Y-97763500D01*
X119475250Y-97763500D01*
X118522750Y-97763500D01*
X118263500Y-97763500D01*
X118263500Y-97783500D01*
X118009500Y-97783500D01*
X118009500Y-97763500D01*
X117989500Y-97763500D01*
X117989500Y-97509500D01*
X118009500Y-97509500D01*
X118009500Y-97250250D01*
X118009500Y-96297750D01*
X118009500Y-96038500D01*
X117989500Y-96038500D01*
X117989500Y-95784500D01*
X118009500Y-95784500D01*
X118009500Y-95764500D01*
X118263500Y-95764500D01*
X118263500Y-95784500D01*
X118522750Y-95784500D01*
X119475250Y-95784500D01*
X119734500Y-95784500D01*
X119734500Y-95764500D01*
X119988500Y-95764500D01*
X119988500Y-95784500D01*
X120008500Y-95784500D01*
X120008500Y-96038500D01*
X119988500Y-96038500D01*
X119988500Y-96297750D01*
X119988500Y-97250250D01*
X119988500Y-97509500D01*
X120008500Y-97509500D01*
X120008500Y-97763500D01*
G36*
X121292300Y-91770200D02*
X121272300Y-91770200D01*
X121272300Y-91790200D01*
X121018300Y-91790200D01*
X121018300Y-91770200D01*
X120998300Y-91770200D01*
X120998300Y-91516200D01*
X121018300Y-91516200D01*
X121018300Y-91496200D01*
X121272300Y-91496200D01*
X121272300Y-91516200D01*
X121292300Y-91516200D01*
X121292300Y-91770200D01*
X121292300Y-91770200D01*
G37*
X121292300Y-91770200D02*
X121272300Y-91770200D01*
X121272300Y-91790200D01*
X121018300Y-91790200D01*
X121018300Y-91770200D01*
X120998300Y-91770200D01*
X120998300Y-91516200D01*
X121018300Y-91516200D01*
X121018300Y-91496200D01*
X121272300Y-91496200D01*
X121272300Y-91516200D01*
X121292300Y-91516200D01*
X121292300Y-91770200D01*
G36*
X121767600Y-94518000D02*
X121673214Y-94518000D01*
X121367250Y-94518000D01*
X121350250Y-94501000D01*
X121060346Y-94501000D01*
X120850310Y-94414000D01*
X120755000Y-94414000D01*
X120755000Y-94384054D01*
X120757000Y-94374000D01*
X120757000Y-94227000D01*
X120811500Y-94227000D01*
X120811500Y-94247000D01*
X121350250Y-94247000D01*
X121509000Y-94088250D01*
X121509000Y-93897691D01*
X121412327Y-93664302D01*
X121243759Y-93495733D01*
X121263335Y-93476192D01*
X121373774Y-93210224D01*
X121374025Y-92922239D01*
X121272302Y-92676050D01*
X121272302Y-92569032D01*
X121431050Y-92727780D01*
X121620859Y-92727780D01*
X121767600Y-92666997D01*
X121767600Y-94518000D01*
X121767600Y-94518000D01*
G37*
X121767600Y-94518000D02*
X121673214Y-94518000D01*
X121367250Y-94518000D01*
X121350250Y-94501000D01*
X121060346Y-94501000D01*
X120850310Y-94414000D01*
X120755000Y-94414000D01*
X120755000Y-94384054D01*
X120757000Y-94374000D01*
X120757000Y-94227000D01*
X120811500Y-94227000D01*
X120811500Y-94247000D01*
X121350250Y-94247000D01*
X121509000Y-94088250D01*
X121509000Y-93897691D01*
X121412327Y-93664302D01*
X121243759Y-93495733D01*
X121263335Y-93476192D01*
X121373774Y-93210224D01*
X121374025Y-92922239D01*
X121272302Y-92676050D01*
X121272302Y-92569032D01*
X121431050Y-92727780D01*
X121620859Y-92727780D01*
X121767600Y-92666997D01*
X121767600Y-94518000D01*
G36*
X122879800Y-99580700D02*
X122859800Y-99580700D01*
X122859800Y-99600700D01*
X122605800Y-99600700D01*
X122605800Y-99580700D01*
X121806970Y-99580700D01*
X121756170Y-99631500D01*
X121241863Y-99631500D01*
X121255000Y-99599785D01*
X121255000Y-99448214D01*
X121255000Y-99142250D01*
X121272000Y-99125250D01*
X121272000Y-98835345D01*
X121359000Y-98625309D01*
X121359000Y-98530000D01*
X121388945Y-98530000D01*
X121399000Y-98532000D01*
X121546000Y-98532000D01*
X121546000Y-98586500D01*
X121526000Y-98586500D01*
X121526000Y-99125250D01*
X121684750Y-99284000D01*
X121764270Y-99284000D01*
X121806970Y-99326700D01*
X122605800Y-99326700D01*
X122605800Y-99306700D01*
X122859800Y-99306700D01*
X122859800Y-99326700D01*
X122879800Y-99326700D01*
X122879800Y-99580700D01*
X122879800Y-99580700D01*
G37*
X122879800Y-99580700D02*
X122859800Y-99580700D01*
X122859800Y-99600700D01*
X122605800Y-99600700D01*
X122605800Y-99580700D01*
X121806970Y-99580700D01*
X121756170Y-99631500D01*
X121241863Y-99631500D01*
X121255000Y-99599785D01*
X121255000Y-99448214D01*
X121255000Y-99142250D01*
X121272000Y-99125250D01*
X121272000Y-98835345D01*
X121359000Y-98625309D01*
X121359000Y-98530000D01*
X121388945Y-98530000D01*
X121399000Y-98532000D01*
X121546000Y-98532000D01*
X121546000Y-98586500D01*
X121526000Y-98586500D01*
X121526000Y-99125250D01*
X121684750Y-99284000D01*
X121764270Y-99284000D01*
X121806970Y-99326700D01*
X122605800Y-99326700D01*
X122605800Y-99306700D01*
X122859800Y-99306700D01*
X122859800Y-99326700D01*
X122879800Y-99326700D01*
X122879800Y-99580700D01*
G36*
X126422150Y-97002600D02*
X126263400Y-97161350D01*
X126263400Y-98272600D01*
X126283400Y-98272600D01*
X126283400Y-98526600D01*
X126263400Y-98526600D01*
X126263400Y-98546600D01*
X126009400Y-98546600D01*
X126009400Y-98526600D01*
X125989400Y-98526600D01*
X125989400Y-98272600D01*
X126009400Y-98272600D01*
X126009400Y-97161350D01*
X125850650Y-97002600D01*
X126422150Y-97002600D01*
X126422150Y-97002600D01*
G37*
X126422150Y-97002600D02*
X126263400Y-97161350D01*
X126263400Y-98272600D01*
X126283400Y-98272600D01*
X126283400Y-98526600D01*
X126263400Y-98526600D01*
X126263400Y-98546600D01*
X126009400Y-98546600D01*
X126009400Y-98526600D01*
X125989400Y-98526600D01*
X125989400Y-98272600D01*
X126009400Y-98272600D01*
X126009400Y-97161350D01*
X125850650Y-97002600D01*
X126422150Y-97002600D01*
M02*
