%FSLAX46Y46*%
G04 Gerber Fmt 4.6, Leading zero omitted, Abs format (unit mm)*
G04 Created by KiCad (PCBNEW (2014-10-18 BZR 5203)-product) date 6/17/2015 2:44:22 PM*
%MOMM*%
G01*
G04 APERTURE LIST*
%ADD10C,0.100000*%
%ADD11C,0.127000*%
%ADD12C,0.200000*%
%ADD13C,0.190500*%
G04 APERTURE END LIST*
D10*
D11*
X126163010Y-98550187D02*
X125655010Y-98550187D01*
X126163010Y-98332472D02*
X125896914Y-98332472D01*
X125848533Y-98356663D01*
X125824343Y-98405044D01*
X125824343Y-98477615D01*
X125848533Y-98525996D01*
X125872724Y-98550187D01*
X126163010Y-97872853D02*
X125896914Y-97872853D01*
X125848533Y-97897044D01*
X125824343Y-97945425D01*
X125824343Y-98042187D01*
X125848533Y-98090568D01*
X126138819Y-97872853D02*
X126163010Y-97921234D01*
X126163010Y-98042187D01*
X126138819Y-98090568D01*
X126090438Y-98114758D01*
X126042057Y-98114758D01*
X125993676Y-98090568D01*
X125969486Y-98042187D01*
X125969486Y-97921234D01*
X125945295Y-97872853D01*
X126138819Y-97413234D02*
X126163010Y-97461615D01*
X126163010Y-97558377D01*
X126138819Y-97606758D01*
X126114629Y-97630949D01*
X126066248Y-97655139D01*
X125921105Y-97655139D01*
X125872724Y-97630949D01*
X125848533Y-97606758D01*
X125824343Y-97558377D01*
X125824343Y-97461615D01*
X125848533Y-97413234D01*
X126114629Y-97195520D02*
X126138819Y-97171329D01*
X126163010Y-97195520D01*
X126138819Y-97219710D01*
X126114629Y-97195520D01*
X126163010Y-97195520D01*
X126163010Y-96953615D02*
X125824343Y-96953615D01*
X125655010Y-96953615D02*
X125679200Y-96977805D01*
X125703390Y-96953615D01*
X125679200Y-96929424D01*
X125655010Y-96953615D01*
X125703390Y-96953615D01*
X126163010Y-96639138D02*
X126138819Y-96687519D01*
X126114629Y-96711710D01*
X126066248Y-96735900D01*
X125921105Y-96735900D01*
X125872724Y-96711710D01*
X125848533Y-96687519D01*
X125824343Y-96639138D01*
X125824343Y-96566567D01*
X125848533Y-96518186D01*
X125872724Y-96493995D01*
X125921105Y-96469805D01*
X126066248Y-96469805D01*
X126114629Y-96493995D01*
X126138819Y-96518186D01*
X126163010Y-96566567D01*
X126163010Y-96639138D01*
X125630819Y-95889233D02*
X126283962Y-96324662D01*
X125824343Y-95719901D02*
X126332343Y-95719901D01*
X125848533Y-95719901D02*
X125824343Y-95671520D01*
X125824343Y-95574758D01*
X125848533Y-95526377D01*
X125872724Y-95502186D01*
X125921105Y-95477996D01*
X126066248Y-95477996D01*
X126114629Y-95502186D01*
X126138819Y-95526377D01*
X126163010Y-95574758D01*
X126163010Y-95671520D01*
X126138819Y-95719901D01*
X126163010Y-95260282D02*
X125824343Y-95260282D01*
X125921105Y-95260282D02*
X125872724Y-95236091D01*
X125848533Y-95211901D01*
X125824343Y-95163520D01*
X125824343Y-95115139D01*
X126163010Y-94873234D02*
X126138819Y-94921615D01*
X126114629Y-94945806D01*
X126066248Y-94969996D01*
X125921105Y-94969996D01*
X125872724Y-94945806D01*
X125848533Y-94921615D01*
X125824343Y-94873234D01*
X125824343Y-94800663D01*
X125848533Y-94752282D01*
X125872724Y-94728091D01*
X125921105Y-94703901D01*
X126066248Y-94703901D01*
X126114629Y-94728091D01*
X126138819Y-94752282D01*
X126163010Y-94800663D01*
X126163010Y-94873234D01*
X125824343Y-94486187D02*
X126259771Y-94486187D01*
X126308152Y-94510377D01*
X126332343Y-94558758D01*
X126332343Y-94582949D01*
X125655010Y-94486187D02*
X125679200Y-94510377D01*
X125703390Y-94486187D01*
X125679200Y-94461996D01*
X125655010Y-94486187D01*
X125703390Y-94486187D01*
X126138819Y-94050758D02*
X126163010Y-94099139D01*
X126163010Y-94195901D01*
X126138819Y-94244282D01*
X126090438Y-94268472D01*
X125896914Y-94268472D01*
X125848533Y-94244282D01*
X125824343Y-94195901D01*
X125824343Y-94099139D01*
X125848533Y-94050758D01*
X125896914Y-94026567D01*
X125945295Y-94026567D01*
X125993676Y-94268472D01*
X126138819Y-93591138D02*
X126163010Y-93639519D01*
X126163010Y-93736281D01*
X126138819Y-93784662D01*
X126114629Y-93808853D01*
X126066248Y-93833043D01*
X125921105Y-93833043D01*
X125872724Y-93808853D01*
X125848533Y-93784662D01*
X125824343Y-93736281D01*
X125824343Y-93639519D01*
X125848533Y-93591138D01*
X125824343Y-93445995D02*
X125824343Y-93252471D01*
X125655010Y-93373424D02*
X126090438Y-93373424D01*
X126138819Y-93349233D01*
X126163010Y-93300852D01*
X126163010Y-93252471D01*
X125630819Y-92720280D02*
X126283962Y-93155709D01*
X125824343Y-92333233D02*
X126163010Y-92333233D01*
X125630819Y-92454186D02*
X125993676Y-92575138D01*
X125993676Y-92260662D01*
X125872724Y-91994566D02*
X125848533Y-92042947D01*
X125824343Y-92067138D01*
X125775962Y-92091328D01*
X125751771Y-92091328D01*
X125703390Y-92067138D01*
X125679200Y-92042947D01*
X125655010Y-91994566D01*
X125655010Y-91897804D01*
X125679200Y-91849423D01*
X125703390Y-91825233D01*
X125751771Y-91801042D01*
X125775962Y-91801042D01*
X125824343Y-91825233D01*
X125848533Y-91849423D01*
X125872724Y-91897804D01*
X125872724Y-91994566D01*
X125896914Y-92042947D01*
X125921105Y-92067138D01*
X125969486Y-92091328D01*
X126066248Y-92091328D01*
X126114629Y-92067138D01*
X126138819Y-92042947D01*
X126163010Y-91994566D01*
X126163010Y-91897804D01*
X126138819Y-91849423D01*
X126114629Y-91825233D01*
X126066248Y-91801042D01*
X125969486Y-91801042D01*
X125921105Y-91825233D01*
X125896914Y-91849423D01*
X125872724Y-91897804D01*
X125703390Y-91607518D02*
X125679200Y-91583328D01*
X125655010Y-91534947D01*
X125655010Y-91413994D01*
X125679200Y-91365613D01*
X125703390Y-91341423D01*
X125751771Y-91317232D01*
X125800152Y-91317232D01*
X125872724Y-91341423D01*
X126163010Y-91631709D01*
X126163010Y-91317232D01*
X125655010Y-90881803D02*
X125655010Y-90978565D01*
X125679200Y-91026946D01*
X125703390Y-91051137D01*
X125775962Y-91099518D01*
X125872724Y-91123708D01*
X126066248Y-91123708D01*
X126114629Y-91099518D01*
X126138819Y-91075327D01*
X126163010Y-91026946D01*
X126163010Y-90930184D01*
X126138819Y-90881803D01*
X126114629Y-90857613D01*
X126066248Y-90833422D01*
X125945295Y-90833422D01*
X125896914Y-90857613D01*
X125872724Y-90881803D01*
X125848533Y-90930184D01*
X125848533Y-91026946D01*
X125872724Y-91075327D01*
X125896914Y-91099518D01*
X125945295Y-91123708D01*
X119889210Y-99625453D02*
X119381210Y-99625453D01*
X119381210Y-99504500D01*
X119405400Y-99431929D01*
X119453781Y-99383548D01*
X119502162Y-99359357D01*
X119598924Y-99335167D01*
X119671495Y-99335167D01*
X119768257Y-99359357D01*
X119816638Y-99383548D01*
X119865019Y-99431929D01*
X119889210Y-99504500D01*
X119889210Y-99625453D01*
X119381210Y-99165834D02*
X119381210Y-98827167D01*
X119889210Y-99044881D01*
X119889210Y-97161653D02*
X119381210Y-97161653D01*
X119381210Y-97040700D01*
X119405400Y-96968129D01*
X119453781Y-96919748D01*
X119502162Y-96895557D01*
X119598924Y-96871367D01*
X119671495Y-96871367D01*
X119768257Y-96895557D01*
X119816638Y-96919748D01*
X119865019Y-96968129D01*
X119889210Y-97040700D01*
X119889210Y-97161653D01*
X119381210Y-96435938D02*
X119381210Y-96532700D01*
X119405400Y-96581081D01*
X119429590Y-96605272D01*
X119502162Y-96653653D01*
X119598924Y-96677843D01*
X119792448Y-96677843D01*
X119840829Y-96653653D01*
X119865019Y-96629462D01*
X119889210Y-96581081D01*
X119889210Y-96484319D01*
X119865019Y-96435938D01*
X119840829Y-96411748D01*
X119792448Y-96387557D01*
X119671495Y-96387557D01*
X119623114Y-96411748D01*
X119598924Y-96435938D01*
X119574733Y-96484319D01*
X119574733Y-96581081D01*
X119598924Y-96629462D01*
X119623114Y-96653653D01*
X119671495Y-96677843D01*
X119889210Y-94608953D02*
X119381210Y-94608953D01*
X119381210Y-94488000D01*
X119405400Y-94415429D01*
X119453781Y-94367048D01*
X119502162Y-94342857D01*
X119598924Y-94318667D01*
X119671495Y-94318667D01*
X119768257Y-94342857D01*
X119816638Y-94367048D01*
X119865019Y-94415429D01*
X119889210Y-94488000D01*
X119889210Y-94608953D01*
X119381210Y-93859048D02*
X119381210Y-94100953D01*
X119623114Y-94125143D01*
X119598924Y-94100953D01*
X119574733Y-94052572D01*
X119574733Y-93931619D01*
X119598924Y-93883238D01*
X119623114Y-93859048D01*
X119671495Y-93834857D01*
X119792448Y-93834857D01*
X119840829Y-93859048D01*
X119865019Y-93883238D01*
X119889210Y-93931619D01*
X119889210Y-94052572D01*
X119865019Y-94100953D01*
X119840829Y-94125143D01*
X119901910Y-92068953D02*
X119393910Y-92068953D01*
X119393910Y-91948000D01*
X119418100Y-91875429D01*
X119466481Y-91827048D01*
X119514862Y-91802857D01*
X119611624Y-91778667D01*
X119684195Y-91778667D01*
X119780957Y-91802857D01*
X119829338Y-91827048D01*
X119877719Y-91875429D01*
X119901910Y-91948000D01*
X119901910Y-92068953D01*
X119563243Y-91343238D02*
X119901910Y-91343238D01*
X119369719Y-91464191D02*
X119732576Y-91585143D01*
X119732576Y-91270667D01*
X119236067Y-95968457D02*
X119236067Y-95726552D01*
X119381210Y-96016838D02*
X118873210Y-95847505D01*
X119381210Y-95678171D01*
X118873210Y-95557219D02*
X118873210Y-95242742D01*
X119066733Y-95412076D01*
X119066733Y-95339504D01*
X119090924Y-95291123D01*
X119115114Y-95266933D01*
X119163495Y-95242742D01*
X119284448Y-95242742D01*
X119332829Y-95266933D01*
X119357019Y-95291123D01*
X119381210Y-95339504D01*
X119381210Y-95484647D01*
X119357019Y-95533028D01*
X119332829Y-95557219D01*
X119248767Y-93301457D02*
X119248767Y-93059552D01*
X119393910Y-93349838D02*
X118885910Y-93180505D01*
X119393910Y-93011171D01*
X119055243Y-92624123D02*
X119393910Y-92624123D01*
X118861719Y-92745076D02*
X119224576Y-92866028D01*
X119224576Y-92551552D01*
X116117310Y-90901157D02*
X116117310Y-91191443D01*
X116117310Y-91046300D02*
X115609310Y-91046300D01*
X115681881Y-91094681D01*
X115730262Y-91143062D01*
X115754452Y-91191443D01*
X114150020Y-100343910D02*
X113980687Y-100102005D01*
X113859734Y-100343910D02*
X113859734Y-99835910D01*
X114053258Y-99835910D01*
X114101639Y-99860100D01*
X114125830Y-99884290D01*
X114150020Y-99932671D01*
X114150020Y-100005243D01*
X114125830Y-100053624D01*
X114101639Y-100077814D01*
X114053258Y-100102005D01*
X113859734Y-100102005D01*
X114464496Y-99835910D02*
X114561258Y-99835910D01*
X114609639Y-99860100D01*
X114658020Y-99908481D01*
X114682211Y-100005243D01*
X114682211Y-100174576D01*
X114658020Y-100271338D01*
X114609639Y-100319719D01*
X114561258Y-100343910D01*
X114464496Y-100343910D01*
X114416115Y-100319719D01*
X114367734Y-100271338D01*
X114343544Y-100174576D01*
X114343544Y-100005243D01*
X114367734Y-99908481D01*
X114416115Y-99860100D01*
X114464496Y-99835910D01*
X114899924Y-100343910D02*
X114899924Y-99835910D01*
X115069258Y-100198767D01*
X115238591Y-99835910D01*
X115238591Y-100343910D01*
X116036877Y-100077814D02*
X116109448Y-100102005D01*
X116133639Y-100126195D01*
X116157829Y-100174576D01*
X116157829Y-100247148D01*
X116133639Y-100295529D01*
X116109448Y-100319719D01*
X116061067Y-100343910D01*
X115867543Y-100343910D01*
X115867543Y-99835910D01*
X116036877Y-99835910D01*
X116085258Y-99860100D01*
X116109448Y-99884290D01*
X116133639Y-99932671D01*
X116133639Y-99981052D01*
X116109448Y-100029433D01*
X116085258Y-100053624D01*
X116036877Y-100077814D01*
X115867543Y-100077814D01*
X116472305Y-99835910D02*
X116569067Y-99835910D01*
X116617448Y-99860100D01*
X116665829Y-99908481D01*
X116690020Y-100005243D01*
X116690020Y-100174576D01*
X116665829Y-100271338D01*
X116617448Y-100319719D01*
X116569067Y-100343910D01*
X116472305Y-100343910D01*
X116423924Y-100319719D01*
X116375543Y-100271338D01*
X116351353Y-100174576D01*
X116351353Y-100005243D01*
X116375543Y-99908481D01*
X116423924Y-99860100D01*
X116472305Y-99835910D01*
X117004495Y-99835910D02*
X117101257Y-99835910D01*
X117149638Y-99860100D01*
X117198019Y-99908481D01*
X117222210Y-100005243D01*
X117222210Y-100174576D01*
X117198019Y-100271338D01*
X117149638Y-100319719D01*
X117101257Y-100343910D01*
X117004495Y-100343910D01*
X116956114Y-100319719D01*
X116907733Y-100271338D01*
X116883543Y-100174576D01*
X116883543Y-100005243D01*
X116907733Y-99908481D01*
X116956114Y-99860100D01*
X117004495Y-99835910D01*
X117367352Y-99835910D02*
X117657638Y-99835910D01*
X117512495Y-100343910D02*
X117512495Y-99835910D01*
D12*
X115531900Y-98336100D02*
X115531900Y-99758500D01*
X115531900Y-98679000D02*
X116154200Y-98679000D01*
X115531900Y-96139000D02*
X115531900Y-98679000D01*
X116154200Y-96139000D02*
X115531900Y-96139000D01*
D13*
X109437715Y-96610714D02*
X109691715Y-97372714D01*
X109945715Y-96610714D01*
X111506000Y-96610714D02*
X111578572Y-96610714D01*
X111651143Y-96647000D01*
X111687429Y-96683286D01*
X111723715Y-96755857D01*
X111760000Y-96901000D01*
X111760000Y-97082429D01*
X111723715Y-97227571D01*
X111687429Y-97300143D01*
X111651143Y-97336429D01*
X111578572Y-97372714D01*
X111506000Y-97372714D01*
X111433429Y-97336429D01*
X111397143Y-97300143D01*
X111360858Y-97227571D01*
X111324572Y-97082429D01*
X111324572Y-96901000D01*
X111360858Y-96755857D01*
X111397143Y-96683286D01*
X111433429Y-96647000D01*
X111506000Y-96610714D01*
X112667143Y-97300143D02*
X112703428Y-97336429D01*
X112667143Y-97372714D01*
X112630857Y-97336429D01*
X112667143Y-97300143D01*
X112667143Y-97372714D01*
X113574285Y-96683286D02*
X113610571Y-96647000D01*
X113683142Y-96610714D01*
X113864571Y-96610714D01*
X113937142Y-96647000D01*
X113973428Y-96683286D01*
X114009713Y-96755857D01*
X114009713Y-96828429D01*
X113973428Y-96937286D01*
X113537999Y-97372714D01*
X114009713Y-97372714D01*
X108987773Y-92394314D02*
X109423202Y-92394314D01*
X109205488Y-93156314D02*
X109205488Y-92394314D01*
X111672915Y-92757171D02*
X111781772Y-92793457D01*
X111818057Y-92829743D01*
X111854343Y-92902314D01*
X111854343Y-93011171D01*
X111818057Y-93083743D01*
X111781772Y-93120029D01*
X111709200Y-93156314D01*
X111418915Y-93156314D01*
X111418915Y-92394314D01*
X111672915Y-92394314D01*
X111745486Y-92430600D01*
X111781772Y-92466886D01*
X111818057Y-92539457D01*
X111818057Y-92612029D01*
X111781772Y-92684600D01*
X111745486Y-92720886D01*
X111672915Y-92757171D01*
X111418915Y-92757171D01*
X113922628Y-93156314D02*
X113922628Y-92394314D01*
X114104056Y-92394314D01*
X114212913Y-92430600D01*
X114285485Y-92503171D01*
X114321770Y-92575743D01*
X114358056Y-92720886D01*
X114358056Y-92829743D01*
X114321770Y-92974886D01*
X114285485Y-93047457D01*
X114212913Y-93120029D01*
X114104056Y-93156314D01*
X113922628Y-93156314D01*
D11*
X117773753Y-97383600D02*
X117725372Y-97359410D01*
X117652800Y-97359410D01*
X117580229Y-97383600D01*
X117531848Y-97431981D01*
X117507657Y-97480362D01*
X117483467Y-97577124D01*
X117483467Y-97649695D01*
X117507657Y-97746457D01*
X117531848Y-97794838D01*
X117580229Y-97843219D01*
X117652800Y-97867410D01*
X117701181Y-97867410D01*
X117773753Y-97843219D01*
X117797943Y-97819029D01*
X117797943Y-97649695D01*
X117701181Y-97649695D01*
X118015657Y-97867410D02*
X118015657Y-97359410D01*
X118305943Y-97867410D01*
X118305943Y-97359410D01*
X118547847Y-97867410D02*
X118547847Y-97359410D01*
X118668800Y-97359410D01*
X118741371Y-97383600D01*
X118789752Y-97431981D01*
X118813943Y-97480362D01*
X118838133Y-97577124D01*
X118838133Y-97649695D01*
X118813943Y-97746457D01*
X118789752Y-97794838D01*
X118741371Y-97843219D01*
X118668800Y-97867410D01*
X118547847Y-97867410D01*
X115273061Y-95340110D02*
X115273061Y-94832110D01*
X115490776Y-94880490D02*
X115514966Y-94856300D01*
X115563347Y-94832110D01*
X115684300Y-94832110D01*
X115732681Y-94856300D01*
X115756871Y-94880490D01*
X115781062Y-94928871D01*
X115781062Y-94977252D01*
X115756871Y-95049824D01*
X115466585Y-95340110D01*
X115781062Y-95340110D01*
X116289062Y-95291729D02*
X116264872Y-95315919D01*
X116192300Y-95340110D01*
X116143919Y-95340110D01*
X116071348Y-95315919D01*
X116022967Y-95267538D01*
X115998776Y-95219157D01*
X115974586Y-95122395D01*
X115974586Y-95049824D01*
X115998776Y-94953062D01*
X116022967Y-94904681D01*
X116071348Y-94856300D01*
X116143919Y-94832110D01*
X116192300Y-94832110D01*
X116264872Y-94856300D01*
X116289062Y-94880490D01*
X116772872Y-95340110D02*
X116482586Y-95340110D01*
X116627729Y-95340110D02*
X116627729Y-94832110D01*
X116579348Y-94904681D01*
X116530967Y-94953062D01*
X116482586Y-94977252D01*
X116869634Y-95388490D02*
X117256682Y-95388490D01*
X117353444Y-95315919D02*
X117426015Y-95340110D01*
X117546968Y-95340110D01*
X117595349Y-95315919D01*
X117619539Y-95291729D01*
X117643730Y-95243348D01*
X117643730Y-95194967D01*
X117619539Y-95146586D01*
X117595349Y-95122395D01*
X117546968Y-95098205D01*
X117450206Y-95074014D01*
X117401825Y-95049824D01*
X117377634Y-95025633D01*
X117353444Y-94977252D01*
X117353444Y-94928871D01*
X117377634Y-94880490D01*
X117401825Y-94856300D01*
X117450206Y-94832110D01*
X117571158Y-94832110D01*
X117643730Y-94856300D01*
X118151730Y-95291729D02*
X118127540Y-95315919D01*
X118054968Y-95340110D01*
X118006587Y-95340110D01*
X117934016Y-95315919D01*
X117885635Y-95267538D01*
X117861444Y-95219157D01*
X117837254Y-95122395D01*
X117837254Y-95049824D01*
X117861444Y-94953062D01*
X117885635Y-94904681D01*
X117934016Y-94856300D01*
X118006587Y-94832110D01*
X118054968Y-94832110D01*
X118127540Y-94856300D01*
X118151730Y-94880490D01*
X118369444Y-95340110D02*
X118369444Y-94832110D01*
X118659730Y-95340110D02*
X118442016Y-95049824D01*
X118659730Y-94832110D02*
X118369444Y-95122395D01*
X115296646Y-92787410D02*
X115296646Y-92279410D01*
X115514361Y-92327790D02*
X115538551Y-92303600D01*
X115586932Y-92279410D01*
X115707885Y-92279410D01*
X115756266Y-92303600D01*
X115780456Y-92327790D01*
X115804647Y-92376171D01*
X115804647Y-92424552D01*
X115780456Y-92497124D01*
X115490170Y-92787410D01*
X115804647Y-92787410D01*
X116312647Y-92739029D02*
X116288457Y-92763219D01*
X116215885Y-92787410D01*
X116167504Y-92787410D01*
X116094933Y-92763219D01*
X116046552Y-92714838D01*
X116022361Y-92666457D01*
X115998171Y-92569695D01*
X115998171Y-92497124D01*
X116022361Y-92400362D01*
X116046552Y-92351981D01*
X116094933Y-92303600D01*
X116167504Y-92279410D01*
X116215885Y-92279410D01*
X116288457Y-92303600D01*
X116312647Y-92327790D01*
X116796457Y-92787410D02*
X116506171Y-92787410D01*
X116651314Y-92787410D02*
X116651314Y-92279410D01*
X116602933Y-92351981D01*
X116554552Y-92400362D01*
X116506171Y-92424552D01*
X116893219Y-92835790D02*
X117280267Y-92835790D01*
X117377029Y-92763219D02*
X117449600Y-92787410D01*
X117570553Y-92787410D01*
X117618934Y-92763219D01*
X117643124Y-92739029D01*
X117667315Y-92690648D01*
X117667315Y-92642267D01*
X117643124Y-92593886D01*
X117618934Y-92569695D01*
X117570553Y-92545505D01*
X117473791Y-92521314D01*
X117425410Y-92497124D01*
X117401219Y-92472933D01*
X117377029Y-92424552D01*
X117377029Y-92376171D01*
X117401219Y-92327790D01*
X117425410Y-92303600D01*
X117473791Y-92279410D01*
X117594743Y-92279410D01*
X117667315Y-92303600D01*
X117885029Y-92787410D02*
X117885029Y-92279410D01*
X118005982Y-92279410D01*
X118078553Y-92303600D01*
X118126934Y-92351981D01*
X118151125Y-92400362D01*
X118175315Y-92497124D01*
X118175315Y-92569695D01*
X118151125Y-92666457D01*
X118126934Y-92714838D01*
X118078553Y-92763219D01*
X118005982Y-92787410D01*
X117885029Y-92787410D01*
X118368839Y-92642267D02*
X118610744Y-92642267D01*
X118320458Y-92787410D02*
X118489791Y-92279410D01*
X118659125Y-92787410D01*
X120134138Y-97855919D02*
X120206709Y-97880110D01*
X120327662Y-97880110D01*
X120376043Y-97855919D01*
X120400233Y-97831729D01*
X120424424Y-97783348D01*
X120424424Y-97734967D01*
X120400233Y-97686586D01*
X120376043Y-97662395D01*
X120327662Y-97638205D01*
X120230900Y-97614014D01*
X120182519Y-97589824D01*
X120158328Y-97565633D01*
X120134138Y-97517252D01*
X120134138Y-97468871D01*
X120158328Y-97420490D01*
X120182519Y-97396300D01*
X120230900Y-97372110D01*
X120351852Y-97372110D01*
X120424424Y-97396300D01*
X120642138Y-97880110D02*
X120642138Y-97372110D01*
X120835662Y-97372110D01*
X120884043Y-97396300D01*
X120908234Y-97420490D01*
X120932424Y-97468871D01*
X120932424Y-97541443D01*
X120908234Y-97589824D01*
X120884043Y-97614014D01*
X120835662Y-97638205D01*
X120642138Y-97638205D01*
X121150138Y-97880110D02*
X121150138Y-97372110D01*
X121658139Y-97880110D02*
X121367853Y-97880110D01*
X121512996Y-97880110D02*
X121512996Y-97372110D01*
X121464615Y-97444681D01*
X121416234Y-97493062D01*
X121367853Y-97517252D01*
X121754901Y-97928490D02*
X122141949Y-97928490D01*
X122262901Y-97880110D02*
X122262901Y-97372110D01*
X122432235Y-97734967D01*
X122601568Y-97372110D01*
X122601568Y-97880110D01*
X122843472Y-97880110D02*
X122843472Y-97372110D01*
X123061187Y-97855919D02*
X123133758Y-97880110D01*
X123254711Y-97880110D01*
X123303092Y-97855919D01*
X123327282Y-97831729D01*
X123351473Y-97783348D01*
X123351473Y-97734967D01*
X123327282Y-97686586D01*
X123303092Y-97662395D01*
X123254711Y-97638205D01*
X123157949Y-97614014D01*
X123109568Y-97589824D01*
X123085377Y-97565633D01*
X123061187Y-97517252D01*
X123061187Y-97468871D01*
X123085377Y-97420490D01*
X123109568Y-97396300D01*
X123157949Y-97372110D01*
X123278901Y-97372110D01*
X123351473Y-97396300D01*
X123665949Y-97372110D02*
X123762711Y-97372110D01*
X123811092Y-97396300D01*
X123859473Y-97444681D01*
X123883664Y-97541443D01*
X123883664Y-97710776D01*
X123859473Y-97807538D01*
X123811092Y-97855919D01*
X123762711Y-97880110D01*
X123665949Y-97880110D01*
X123617568Y-97855919D01*
X123569187Y-97807538D01*
X123544997Y-97710776D01*
X123544997Y-97541443D01*
X123569187Y-97444681D01*
X123617568Y-97396300D01*
X123665949Y-97372110D01*
X120121438Y-95303219D02*
X120194009Y-95327410D01*
X120314962Y-95327410D01*
X120363343Y-95303219D01*
X120387533Y-95279029D01*
X120411724Y-95230648D01*
X120411724Y-95182267D01*
X120387533Y-95133886D01*
X120363343Y-95109695D01*
X120314962Y-95085505D01*
X120218200Y-95061314D01*
X120169819Y-95037124D01*
X120145628Y-95012933D01*
X120121438Y-94964552D01*
X120121438Y-94916171D01*
X120145628Y-94867790D01*
X120169819Y-94843600D01*
X120218200Y-94819410D01*
X120339152Y-94819410D01*
X120411724Y-94843600D01*
X120629438Y-95327410D02*
X120629438Y-94819410D01*
X120822962Y-94819410D01*
X120871343Y-94843600D01*
X120895534Y-94867790D01*
X120919724Y-94916171D01*
X120919724Y-94988743D01*
X120895534Y-95037124D01*
X120871343Y-95061314D01*
X120822962Y-95085505D01*
X120629438Y-95085505D01*
X121137438Y-95327410D02*
X121137438Y-94819410D01*
X121645439Y-95327410D02*
X121355153Y-95327410D01*
X121500296Y-95327410D02*
X121500296Y-94819410D01*
X121451915Y-94891981D01*
X121403534Y-94940362D01*
X121355153Y-94964552D01*
X121742201Y-95375790D02*
X122129249Y-95375790D01*
X122250201Y-95327410D02*
X122250201Y-94819410D01*
X122419535Y-95182267D01*
X122588868Y-94819410D01*
X122588868Y-95327410D01*
X122927534Y-94819410D02*
X123024296Y-94819410D01*
X123072677Y-94843600D01*
X123121058Y-94891981D01*
X123145249Y-94988743D01*
X123145249Y-95158076D01*
X123121058Y-95254838D01*
X123072677Y-95303219D01*
X123024296Y-95327410D01*
X122927534Y-95327410D01*
X122879153Y-95303219D01*
X122830772Y-95254838D01*
X122806582Y-95158076D01*
X122806582Y-94988743D01*
X122830772Y-94891981D01*
X122879153Y-94843600D01*
X122927534Y-94819410D01*
X123338772Y-95303219D02*
X123411343Y-95327410D01*
X123532296Y-95327410D01*
X123580677Y-95303219D01*
X123604867Y-95279029D01*
X123629058Y-95230648D01*
X123629058Y-95182267D01*
X123604867Y-95133886D01*
X123580677Y-95109695D01*
X123532296Y-95085505D01*
X123435534Y-95061314D01*
X123387153Y-95037124D01*
X123362962Y-95012933D01*
X123338772Y-94964552D01*
X123338772Y-94916171D01*
X123362962Y-94867790D01*
X123387153Y-94843600D01*
X123435534Y-94819410D01*
X123556486Y-94819410D01*
X123629058Y-94843600D01*
X123846772Y-95327410D02*
X123846772Y-94819410D01*
X120112971Y-92763219D02*
X120185542Y-92787410D01*
X120306495Y-92787410D01*
X120354876Y-92763219D01*
X120379066Y-92739029D01*
X120403257Y-92690648D01*
X120403257Y-92642267D01*
X120379066Y-92593886D01*
X120354876Y-92569695D01*
X120306495Y-92545505D01*
X120209733Y-92521314D01*
X120161352Y-92497124D01*
X120137161Y-92472933D01*
X120112971Y-92424552D01*
X120112971Y-92376171D01*
X120137161Y-92327790D01*
X120161352Y-92303600D01*
X120209733Y-92279410D01*
X120330685Y-92279410D01*
X120403257Y-92303600D01*
X120620971Y-92787410D02*
X120620971Y-92279410D01*
X120814495Y-92279410D01*
X120862876Y-92303600D01*
X120887067Y-92327790D01*
X120911257Y-92376171D01*
X120911257Y-92448743D01*
X120887067Y-92497124D01*
X120862876Y-92521314D01*
X120814495Y-92545505D01*
X120620971Y-92545505D01*
X121128971Y-92787410D02*
X121128971Y-92279410D01*
X121636972Y-92787410D02*
X121346686Y-92787410D01*
X121491829Y-92787410D02*
X121491829Y-92279410D01*
X121443448Y-92351981D01*
X121395067Y-92400362D01*
X121346686Y-92424552D01*
X121733734Y-92835790D02*
X122120782Y-92835790D01*
X122217544Y-92763219D02*
X122290115Y-92787410D01*
X122411068Y-92787410D01*
X122459449Y-92763219D01*
X122483639Y-92739029D01*
X122507830Y-92690648D01*
X122507830Y-92642267D01*
X122483639Y-92593886D01*
X122459449Y-92569695D01*
X122411068Y-92545505D01*
X122314306Y-92521314D01*
X122265925Y-92497124D01*
X122241734Y-92472933D01*
X122217544Y-92424552D01*
X122217544Y-92376171D01*
X122241734Y-92327790D01*
X122265925Y-92303600D01*
X122314306Y-92279410D01*
X122435258Y-92279410D01*
X122507830Y-92303600D01*
X123015830Y-92739029D02*
X122991640Y-92763219D01*
X122919068Y-92787410D01*
X122870687Y-92787410D01*
X122798116Y-92763219D01*
X122749735Y-92714838D01*
X122725544Y-92666457D01*
X122701354Y-92569695D01*
X122701354Y-92497124D01*
X122725544Y-92400362D01*
X122749735Y-92351981D01*
X122798116Y-92303600D01*
X122870687Y-92279410D01*
X122919068Y-92279410D01*
X122991640Y-92303600D01*
X123015830Y-92327790D01*
X123233544Y-92787410D02*
X123233544Y-92279410D01*
X123523830Y-92787410D02*
X123306116Y-92497124D01*
X123523830Y-92279410D02*
X123233544Y-92569695D01*
X120125066Y-90223219D02*
X120197637Y-90247410D01*
X120318590Y-90247410D01*
X120366971Y-90223219D01*
X120391161Y-90199029D01*
X120415352Y-90150648D01*
X120415352Y-90102267D01*
X120391161Y-90053886D01*
X120366971Y-90029695D01*
X120318590Y-90005505D01*
X120221828Y-89981314D01*
X120173447Y-89957124D01*
X120149256Y-89932933D01*
X120125066Y-89884552D01*
X120125066Y-89836171D01*
X120149256Y-89787790D01*
X120173447Y-89763600D01*
X120221828Y-89739410D01*
X120342780Y-89739410D01*
X120415352Y-89763600D01*
X120633066Y-90247410D02*
X120633066Y-89739410D01*
X120826590Y-89739410D01*
X120874971Y-89763600D01*
X120899162Y-89787790D01*
X120923352Y-89836171D01*
X120923352Y-89908743D01*
X120899162Y-89957124D01*
X120874971Y-89981314D01*
X120826590Y-90005505D01*
X120633066Y-90005505D01*
X121141066Y-90247410D02*
X121141066Y-89739410D01*
X121649067Y-90247410D02*
X121358781Y-90247410D01*
X121503924Y-90247410D02*
X121503924Y-89739410D01*
X121455543Y-89811981D01*
X121407162Y-89860362D01*
X121358781Y-89884552D01*
X121745829Y-90295790D02*
X122132877Y-90295790D01*
X122229639Y-90223219D02*
X122302210Y-90247410D01*
X122423163Y-90247410D01*
X122471544Y-90223219D01*
X122495734Y-90199029D01*
X122519925Y-90150648D01*
X122519925Y-90102267D01*
X122495734Y-90053886D01*
X122471544Y-90029695D01*
X122423163Y-90005505D01*
X122326401Y-89981314D01*
X122278020Y-89957124D01*
X122253829Y-89932933D01*
X122229639Y-89884552D01*
X122229639Y-89836171D01*
X122253829Y-89787790D01*
X122278020Y-89763600D01*
X122326401Y-89739410D01*
X122447353Y-89739410D01*
X122519925Y-89763600D01*
X122713449Y-90223219D02*
X122786020Y-90247410D01*
X122906973Y-90247410D01*
X122955354Y-90223219D01*
X122979544Y-90199029D01*
X123003735Y-90150648D01*
X123003735Y-90102267D01*
X122979544Y-90053886D01*
X122955354Y-90029695D01*
X122906973Y-90005505D01*
X122810211Y-89981314D01*
X122761830Y-89957124D01*
X122737639Y-89932933D01*
X122713449Y-89884552D01*
X122713449Y-89836171D01*
X122737639Y-89787790D01*
X122761830Y-89763600D01*
X122810211Y-89739410D01*
X122931163Y-89739410D01*
X123003735Y-89763600D01*
X117360094Y-89790210D02*
X117674571Y-89790210D01*
X117505237Y-89983733D01*
X117577809Y-89983733D01*
X117626190Y-90007924D01*
X117650380Y-90032114D01*
X117674571Y-90080495D01*
X117674571Y-90201448D01*
X117650380Y-90249829D01*
X117626190Y-90274019D01*
X117577809Y-90298210D01*
X117432666Y-90298210D01*
X117384285Y-90274019D01*
X117360094Y-90249829D01*
X117892285Y-90249829D02*
X117916476Y-90274019D01*
X117892285Y-90298210D01*
X117868095Y-90274019D01*
X117892285Y-90249829D01*
X117892285Y-90298210D01*
X118085809Y-89790210D02*
X118400286Y-89790210D01*
X118230952Y-89983733D01*
X118303524Y-89983733D01*
X118351905Y-90007924D01*
X118376095Y-90032114D01*
X118400286Y-90080495D01*
X118400286Y-90201448D01*
X118376095Y-90249829D01*
X118351905Y-90274019D01*
X118303524Y-90298210D01*
X118158381Y-90298210D01*
X118110000Y-90274019D01*
X118085809Y-90249829D01*
X118545429Y-89790210D02*
X118714762Y-90298210D01*
X118884096Y-89790210D01*
M02*
