%FSLAX46Y46*%
G04 Gerber Fmt 4.6, Leading zero omitted, Abs format (unit mm)*
G04 Created by KiCad (PCBNEW (2014-10-18 BZR 5203)-product) date 6/17/2015 2:44:21 PM*
%MOMM*%
G01*
G04 APERTURE LIST*
%ADD10C,0.100000*%
%ADD11C,1.524000*%
%ADD12R,1.998980X0.398780*%
%ADD13R,1.899920X2.100580*%
%ADD14R,1.600200X2.100580*%
%ADD15R,1.899920X1.899920*%
%ADD16R,0.797560X0.797560*%
%ADD17R,0.250000X0.700000*%
%ADD18R,0.700000X0.250000*%
%ADD19R,1.725000X1.725000*%
%ADD20R,0.750000X0.800000*%
%ADD21R,0.800000X0.750000*%
%ADD22R,0.500000X0.900000*%
%ADD23R,0.900000X0.500000*%
%ADD24C,0.685800*%
%ADD25C,0.254000*%
%ADD26C,0.508000*%
G04 APERTURE END LIST*
D10*
D11*
X116027200Y-94843600D03*
D12*
X110848140Y-94843600D03*
X110848140Y-95491300D03*
X110848140Y-93545660D03*
D13*
X107899200Y-98694240D03*
X107899200Y-90992960D03*
D12*
X110848140Y-94195900D03*
X110848140Y-96141540D03*
D14*
X110449360Y-97942400D03*
X110449360Y-91744800D03*
D15*
X107899200Y-96042480D03*
X107899200Y-93644720D03*
D16*
X124561600Y-98082100D03*
X124561600Y-96583500D03*
D17*
X121688800Y-95719600D03*
X121188800Y-95719600D03*
X120688800Y-95719600D03*
X120188800Y-95719600D03*
X119688800Y-95719600D03*
X119188800Y-95719600D03*
X118688800Y-95719600D03*
X118188800Y-95719600D03*
D18*
X117538800Y-95069600D03*
X117538800Y-94569600D03*
X117538800Y-94069600D03*
X117538800Y-93569600D03*
X117538800Y-93069600D03*
X117538800Y-92569600D03*
X117538800Y-92069600D03*
X117538800Y-91569600D03*
D17*
X118188800Y-90919600D03*
X118688800Y-90919600D03*
X119188800Y-90919600D03*
X119688800Y-90919600D03*
X120188800Y-90919600D03*
X120688800Y-90919600D03*
X121188800Y-90919600D03*
X121688800Y-90919600D03*
D18*
X122338800Y-91569600D03*
X122338800Y-92069600D03*
X122338800Y-92569600D03*
X122338800Y-93069600D03*
X122338800Y-93569600D03*
X122338800Y-94069600D03*
X122338800Y-94569600D03*
X122338800Y-95069600D03*
D19*
X119076300Y-92457100D03*
X120801300Y-92457100D03*
X119076300Y-94182100D03*
X120801300Y-94182100D03*
D20*
X116179600Y-91682000D03*
X116179600Y-90182000D03*
D21*
X118047200Y-97129600D03*
X116547200Y-97129600D03*
D22*
X118579200Y-98552000D03*
X120079200Y-98552000D03*
X118579200Y-99822000D03*
X120079200Y-99822000D03*
D23*
X122478800Y-98005200D03*
X122478800Y-99505200D03*
D24*
X121462800Y-97231200D03*
X119481600Y-97637600D03*
X116687600Y-91084400D03*
X107899200Y-92659200D03*
X108966000Y-94894400D03*
X107899200Y-97028000D03*
X114554000Y-97028000D03*
X110591600Y-96875600D03*
X110490000Y-92862400D03*
X109220000Y-97078800D03*
X107899200Y-90992960D03*
X114503200Y-91389200D03*
X117538500Y-98323400D03*
X121323100Y-100228400D03*
X125476000Y-99771200D03*
X125476000Y-89916000D03*
X125476000Y-94843600D03*
X117373400Y-100241100D03*
X108204000Y-99872800D03*
X111760000Y-96926400D03*
X119227600Y-96824800D03*
X109321600Y-95910400D03*
X114503200Y-95885000D03*
X109321600Y-93878400D03*
X114503200Y-93878400D03*
X123444000Y-93065600D03*
X116586000Y-92608400D03*
X123444000Y-94081600D03*
X115671600Y-92811600D03*
X123444000Y-94996000D03*
X123444000Y-95910400D03*
D25*
X116179600Y-91643200D02*
X116687600Y-91682000D01*
X116636800Y-91694000D02*
X116687600Y-91694000D01*
X116675600Y-91694000D02*
X116636800Y-91694000D01*
X116687600Y-91682000D02*
X116675600Y-91694000D01*
X122478800Y-97485200D02*
X122478800Y-98005200D01*
X122275600Y-97282000D02*
X122478800Y-97485200D01*
X121513600Y-97282000D02*
X122275600Y-97282000D01*
X121462800Y-97231200D02*
X121513600Y-97282000D01*
X118688800Y-95719600D02*
X118719600Y-95750400D01*
X118719600Y-95750400D02*
X118719600Y-96457200D01*
X118719600Y-96457200D02*
X118047200Y-97129600D01*
D26*
X119481600Y-97637600D02*
X118555200Y-97637600D01*
X118555200Y-97637600D02*
X118047200Y-97129600D01*
D25*
X116860000Y-92069600D02*
X116687600Y-91897200D01*
X116687600Y-91897200D02*
X116687600Y-91694000D01*
X116687600Y-91694000D02*
X116687600Y-91084400D01*
X117538800Y-92069600D02*
X116860000Y-92069600D01*
X119481600Y-97637600D02*
X119888000Y-97231200D01*
X119688800Y-96371600D02*
X119688800Y-95719600D01*
X119888000Y-96570800D02*
X119688800Y-96371600D01*
X119888000Y-97231200D02*
X119888000Y-96570800D01*
X107899200Y-93644720D02*
X107899200Y-92659200D01*
X107899200Y-94843600D02*
X108915200Y-94843600D01*
X108915200Y-94843600D02*
X108966000Y-94894400D01*
X107899200Y-94843600D02*
X107899200Y-96042480D01*
X107899200Y-98694240D02*
X107899200Y-97028000D01*
X107899200Y-97028000D02*
X107899200Y-96042480D01*
X116179600Y-90182000D02*
X116179600Y-89966800D01*
X116179600Y-89966800D02*
X116281200Y-89865200D01*
X116547200Y-97129600D02*
X114655600Y-97129600D01*
X114655600Y-97129600D02*
X114554000Y-97028000D01*
X110449360Y-97942400D02*
X110449360Y-97017840D01*
X110449360Y-97017840D02*
X110591600Y-96875600D01*
X107899200Y-98694240D02*
X107899200Y-99568000D01*
X110449360Y-91744800D02*
X110449360Y-92821760D01*
X110449360Y-92821760D02*
X110490000Y-92862400D01*
X110449360Y-91744800D02*
X110449360Y-93146880D01*
X110449360Y-93146880D02*
X110848140Y-93545660D01*
X107899200Y-94843600D02*
X107899200Y-93644720D01*
X110083600Y-97942400D02*
X109220000Y-97078800D01*
X109220000Y-97078800D02*
X108935520Y-97078800D01*
X108935520Y-97078800D02*
X107899200Y-96042480D01*
X110449360Y-97942400D02*
X110083600Y-97942400D01*
X116179600Y-90182000D02*
X115761200Y-90182000D01*
X114554000Y-91389200D02*
X114503200Y-91389200D01*
X115761200Y-90182000D02*
X114554000Y-91389200D01*
X107899200Y-98694240D02*
X108651040Y-97942400D01*
X116547200Y-97129600D02*
X116586000Y-97129600D01*
X116586000Y-97129600D02*
X117996000Y-95719600D01*
X117996000Y-95719600D02*
X118188800Y-95719600D01*
X119076300Y-94182100D02*
X120801300Y-94182100D01*
X120801300Y-94182100D02*
X120801300Y-92457100D01*
X120801300Y-92457100D02*
X119076300Y-92457100D01*
X119076300Y-92457100D02*
X119076300Y-94182100D01*
X116179600Y-90220800D02*
X116747200Y-90229600D01*
X117538800Y-91021200D02*
X117538800Y-91569600D01*
X116747200Y-90229600D02*
X117538800Y-91021200D01*
X116798000Y-97231200D02*
X116798000Y-97900400D01*
X116798000Y-97900400D02*
X117538500Y-98323400D01*
X118188800Y-91569600D02*
X119076300Y-92457100D01*
X117538800Y-91569600D02*
X118188800Y-91569600D01*
X118188800Y-95069600D02*
X119076300Y-94182100D01*
X118188800Y-95719600D02*
X118188800Y-95069600D01*
X121188800Y-94569600D02*
X120801300Y-94182100D01*
X121188800Y-95719600D02*
X121188800Y-94569600D01*
X125425200Y-89865200D02*
X125476000Y-89916000D01*
X116281200Y-89865200D02*
X125425200Y-89865200D01*
X108204000Y-100152200D02*
X108280200Y-100228400D01*
X108280200Y-100228400D02*
X117373400Y-100241100D01*
X107899200Y-99568000D02*
X108204000Y-99872800D01*
X108204000Y-99872800D02*
X108204000Y-100152200D01*
X120688800Y-95719600D02*
X120688800Y-96203200D01*
X120497600Y-99822000D02*
X120079200Y-99822000D01*
X120802400Y-99517200D02*
X120497600Y-99822000D01*
X120802400Y-99263200D02*
X120802400Y-99517200D01*
X121310400Y-98755200D02*
X120802400Y-99263200D01*
X121310400Y-97993200D02*
X121310400Y-98755200D01*
X120853200Y-97536000D02*
X121310400Y-97993200D01*
X120853200Y-96367600D02*
X120853200Y-97536000D01*
X120688800Y-96203200D02*
X120853200Y-96367600D01*
D26*
X111760000Y-96621600D02*
X111658400Y-96316800D01*
X111760000Y-96621600D02*
X111760000Y-96926400D01*
X119188800Y-96786000D02*
X119227600Y-96824800D01*
D25*
X119188800Y-95719600D02*
X119188800Y-96786000D01*
X118579200Y-98552000D02*
X118579200Y-98692400D01*
X110848140Y-95491300D02*
X110835440Y-95504000D01*
X110835440Y-95504000D02*
X109728000Y-95504000D01*
X109728000Y-95504000D02*
X109321600Y-95910400D01*
X118579200Y-98552000D02*
X118579200Y-98743200D01*
X118237000Y-98552000D02*
X117817900Y-98971100D01*
X117817900Y-98971100D02*
X114960400Y-98971100D01*
X114960400Y-98971100D02*
X113601500Y-97612200D01*
X113601500Y-97612200D02*
X113601500Y-95313500D01*
X113601500Y-95313500D02*
X113766600Y-95148400D01*
X113766600Y-95148400D02*
X114134900Y-95148400D01*
X114134900Y-95148400D02*
X114503200Y-95516700D01*
X114503200Y-95516700D02*
X114503200Y-95885000D01*
X118579200Y-98552000D02*
X118237000Y-98552000D01*
X109778800Y-94843600D02*
X109778800Y-94792800D01*
X109372400Y-94386400D02*
X109321600Y-93878400D01*
X109778800Y-94843600D02*
X110848140Y-94843600D01*
X109778800Y-94792800D02*
X109372400Y-94386400D01*
X118046500Y-99822000D02*
X117741700Y-99517200D01*
X117741700Y-99517200D02*
X114736033Y-99517200D01*
X114736033Y-99517200D02*
X113030000Y-97811167D01*
X113030000Y-97811167D02*
X113030000Y-95046800D01*
X113030000Y-95046800D02*
X113487200Y-94640400D01*
X113487200Y-94640400D02*
X114046000Y-94640400D01*
X114046000Y-94640400D02*
X114503200Y-94081600D01*
X114503200Y-94081600D02*
X114503200Y-93878400D01*
X118579200Y-99822000D02*
X118046500Y-99822000D01*
X122940000Y-93569600D02*
X123444000Y-93065600D01*
X122338800Y-93569600D02*
X122940000Y-93569600D01*
X116598000Y-92620400D02*
X116586000Y-92608400D01*
X117538800Y-92569600D02*
X116598000Y-92620400D01*
X123432000Y-94069600D02*
X123444000Y-94081600D01*
X122338800Y-94069600D02*
X123432000Y-94069600D01*
X117538800Y-93069600D02*
X117534800Y-93065600D01*
X117534800Y-93065600D02*
X117094000Y-93065600D01*
X117094000Y-93065600D02*
X116738400Y-93421200D01*
X116738400Y-93421200D02*
X115976400Y-93421200D01*
X115976400Y-93421200D02*
X115671600Y-93116400D01*
X115671600Y-93116400D02*
X115671600Y-92811600D01*
X123017600Y-94569600D02*
X123444000Y-94996000D01*
X122338800Y-94569600D02*
X123017600Y-94569600D01*
X122338800Y-95069600D02*
X122603200Y-95069600D01*
X122603200Y-95069600D02*
X123444000Y-95910400D01*
X122338800Y-95069600D02*
X122501600Y-95069600D01*
X122338800Y-95069600D02*
X122450800Y-95069600D01*
X120188800Y-95719600D02*
X120188800Y-96262000D01*
X120599200Y-98704400D02*
X120231600Y-98704400D01*
X120853200Y-98450400D02*
X120599200Y-98704400D01*
X120853200Y-98247200D02*
X120853200Y-98450400D01*
X120345200Y-97739200D02*
X120853200Y-98247200D01*
X120345200Y-96418400D02*
X120345200Y-97739200D01*
X120188800Y-96262000D02*
X120345200Y-96418400D01*
X120231600Y-98704400D02*
X120079200Y-98552000D01*
X116027200Y-94843600D02*
X116301200Y-94569600D01*
X116301200Y-94569600D02*
X117538800Y-94569600D01*
X122478800Y-99505200D02*
X123138500Y-99505200D01*
X123138500Y-99505200D02*
X124561600Y-98082100D01*
X121688800Y-95719600D02*
X122552700Y-96583500D01*
X122552700Y-96583500D02*
X124561600Y-96583500D01*
G36*
X118211600Y-96246780D02*
X118084780Y-96373600D01*
X117571414Y-96373600D01*
X117431380Y-96431604D01*
X117324204Y-96538781D01*
X117266200Y-96678815D01*
X117266200Y-96830386D01*
X117266200Y-97580386D01*
X117324204Y-97720420D01*
X117431381Y-97827596D01*
X117571415Y-97885600D01*
X117722986Y-97885600D01*
X117905174Y-97885600D01*
X117976783Y-97957208D01*
X117948200Y-98026215D01*
X117948200Y-98145743D01*
X117877790Y-98192790D01*
X117607480Y-98463100D01*
X115170820Y-98463100D01*
X114109500Y-97401780D01*
X114109500Y-96505349D01*
X114358576Y-96608774D01*
X114646561Y-96609025D01*
X114912721Y-96499050D01*
X115116535Y-96295592D01*
X115226974Y-96029624D01*
X115227225Y-95741639D01*
X115169730Y-95602492D01*
X115378897Y-95812023D01*
X115798846Y-95986401D01*
X116253559Y-95986798D01*
X116673812Y-95813154D01*
X116971434Y-95516049D01*
X116972981Y-95517596D01*
X117113015Y-95575600D01*
X117264586Y-95575600D01*
X117964586Y-95575600D01*
X118104620Y-95517596D01*
X118182800Y-95439415D01*
X118182800Y-95445386D01*
X118182800Y-95709545D01*
X118180800Y-95719600D01*
X118182800Y-95729654D01*
X118182800Y-96145386D01*
X118211600Y-96214915D01*
X118211600Y-96246780D01*
X118211600Y-96246780D01*
G37*
X118211600Y-96246780D02*
X118084780Y-96373600D01*
X117571414Y-96373600D01*
X117431380Y-96431604D01*
X117324204Y-96538781D01*
X117266200Y-96678815D01*
X117266200Y-96830386D01*
X117266200Y-97580386D01*
X117324204Y-97720420D01*
X117431381Y-97827596D01*
X117571415Y-97885600D01*
X117722986Y-97885600D01*
X117905174Y-97885600D01*
X117976783Y-97957208D01*
X117948200Y-98026215D01*
X117948200Y-98145743D01*
X117877790Y-98192790D01*
X117607480Y-98463100D01*
X115170820Y-98463100D01*
X114109500Y-97401780D01*
X114109500Y-96505349D01*
X114358576Y-96608774D01*
X114646561Y-96609025D01*
X114912721Y-96499050D01*
X115116535Y-96295592D01*
X115226974Y-96029624D01*
X115227225Y-95741639D01*
X115169730Y-95602492D01*
X115378897Y-95812023D01*
X115798846Y-95986401D01*
X116253559Y-95986798D01*
X116673812Y-95813154D01*
X116971434Y-95516049D01*
X116972981Y-95517596D01*
X117113015Y-95575600D01*
X117264586Y-95575600D01*
X117964586Y-95575600D01*
X118104620Y-95517596D01*
X118182800Y-95439415D01*
X118182800Y-95445386D01*
X118182800Y-95709545D01*
X118180800Y-95719600D01*
X118182800Y-95729654D01*
X118182800Y-96145386D01*
X118211600Y-96214915D01*
X118211600Y-96246780D01*
G36*
X121628185Y-94819600D02*
X121607800Y-94868815D01*
X121607800Y-94988600D01*
X121488014Y-94988600D01*
X121347980Y-95046604D01*
X121240804Y-95153781D01*
X121188800Y-95279329D01*
X121136796Y-95153780D01*
X121029619Y-95046604D01*
X120889585Y-94988600D01*
X120738014Y-94988600D01*
X120488014Y-94988600D01*
X120438799Y-95008985D01*
X120389585Y-94988600D01*
X120238014Y-94988600D01*
X119988014Y-94988600D01*
X119938799Y-95008985D01*
X119889585Y-94988600D01*
X119738014Y-94988600D01*
X119488014Y-94988600D01*
X119438799Y-95008985D01*
X119389585Y-94988600D01*
X119238014Y-94988600D01*
X118988014Y-94988600D01*
X118938799Y-95008985D01*
X118889585Y-94988600D01*
X118738014Y-94988600D01*
X118488014Y-94988600D01*
X118347980Y-95046604D01*
X118269800Y-95124784D01*
X118269800Y-95118814D01*
X118269800Y-94868814D01*
X118249414Y-94819599D01*
X118269800Y-94770385D01*
X118269800Y-94618814D01*
X118269800Y-94368814D01*
X118249414Y-94319599D01*
X118269800Y-94270385D01*
X118269800Y-94118814D01*
X118269800Y-93868814D01*
X118249414Y-93819599D01*
X118269800Y-93770385D01*
X118269800Y-93618814D01*
X118269800Y-93368814D01*
X118249414Y-93319599D01*
X118269800Y-93270385D01*
X118269800Y-93118814D01*
X118269800Y-92868814D01*
X118249414Y-92819599D01*
X118269800Y-92770385D01*
X118269800Y-92618814D01*
X118269800Y-92368814D01*
X118249414Y-92319599D01*
X118269800Y-92270385D01*
X118269800Y-92118814D01*
X118269800Y-91868814D01*
X118211796Y-91728780D01*
X118133615Y-91650600D01*
X118139586Y-91650600D01*
X118389586Y-91650600D01*
X118438800Y-91630214D01*
X118488015Y-91650600D01*
X118639586Y-91650600D01*
X118889586Y-91650600D01*
X118938800Y-91630214D01*
X118988015Y-91650600D01*
X119139586Y-91650600D01*
X119389586Y-91650600D01*
X119438800Y-91630214D01*
X119488015Y-91650600D01*
X119639586Y-91650600D01*
X119889586Y-91650600D01*
X119938800Y-91630214D01*
X119988015Y-91650600D01*
X120139586Y-91650600D01*
X120389586Y-91650600D01*
X120438800Y-91630214D01*
X120488015Y-91650600D01*
X120639586Y-91650600D01*
X120889586Y-91650600D01*
X120938800Y-91630214D01*
X120988015Y-91650600D01*
X121139586Y-91650600D01*
X121389586Y-91650600D01*
X121438800Y-91630214D01*
X121488015Y-91650600D01*
X121607800Y-91650600D01*
X121607800Y-91770386D01*
X121628185Y-91819600D01*
X121607800Y-91868815D01*
X121607800Y-92020386D01*
X121607800Y-92270386D01*
X121628185Y-92319600D01*
X121607800Y-92368815D01*
X121607800Y-92520386D01*
X121607800Y-92770386D01*
X121628185Y-92819600D01*
X121607800Y-92868815D01*
X121607800Y-93020386D01*
X121607800Y-93270386D01*
X121628185Y-93319600D01*
X121607800Y-93368815D01*
X121607800Y-93520386D01*
X121607800Y-93770386D01*
X121628185Y-93819600D01*
X121607800Y-93868815D01*
X121607800Y-94020386D01*
X121607800Y-94270386D01*
X121628185Y-94319600D01*
X121607800Y-94368815D01*
X121607800Y-94520386D01*
X121607800Y-94770386D01*
X121628185Y-94819600D01*
X121628185Y-94819600D01*
G37*
X121628185Y-94819600D02*
X121607800Y-94868815D01*
X121607800Y-94988600D01*
X121488014Y-94988600D01*
X121347980Y-95046604D01*
X121240804Y-95153781D01*
X121188800Y-95279329D01*
X121136796Y-95153780D01*
X121029619Y-95046604D01*
X120889585Y-94988600D01*
X120738014Y-94988600D01*
X120488014Y-94988600D01*
X120438799Y-95008985D01*
X120389585Y-94988600D01*
X120238014Y-94988600D01*
X119988014Y-94988600D01*
X119938799Y-95008985D01*
X119889585Y-94988600D01*
X119738014Y-94988600D01*
X119488014Y-94988600D01*
X119438799Y-95008985D01*
X119389585Y-94988600D01*
X119238014Y-94988600D01*
X118988014Y-94988600D01*
X118938799Y-95008985D01*
X118889585Y-94988600D01*
X118738014Y-94988600D01*
X118488014Y-94988600D01*
X118347980Y-95046604D01*
X118269800Y-95124784D01*
X118269800Y-95118814D01*
X118269800Y-94868814D01*
X118249414Y-94819599D01*
X118269800Y-94770385D01*
X118269800Y-94618814D01*
X118269800Y-94368814D01*
X118249414Y-94319599D01*
X118269800Y-94270385D01*
X118269800Y-94118814D01*
X118269800Y-93868814D01*
X118249414Y-93819599D01*
X118269800Y-93770385D01*
X118269800Y-93618814D01*
X118269800Y-93368814D01*
X118249414Y-93319599D01*
X118269800Y-93270385D01*
X118269800Y-93118814D01*
X118269800Y-92868814D01*
X118249414Y-92819599D01*
X118269800Y-92770385D01*
X118269800Y-92618814D01*
X118269800Y-92368814D01*
X118249414Y-92319599D01*
X118269800Y-92270385D01*
X118269800Y-92118814D01*
X118269800Y-91868814D01*
X118211796Y-91728780D01*
X118133615Y-91650600D01*
X118139586Y-91650600D01*
X118389586Y-91650600D01*
X118438800Y-91630214D01*
X118488015Y-91650600D01*
X118639586Y-91650600D01*
X118889586Y-91650600D01*
X118938800Y-91630214D01*
X118988015Y-91650600D01*
X119139586Y-91650600D01*
X119389586Y-91650600D01*
X119438800Y-91630214D01*
X119488015Y-91650600D01*
X119639586Y-91650600D01*
X119889586Y-91650600D01*
X119938800Y-91630214D01*
X119988015Y-91650600D01*
X120139586Y-91650600D01*
X120389586Y-91650600D01*
X120438800Y-91630214D01*
X120488015Y-91650600D01*
X120639586Y-91650600D01*
X120889586Y-91650600D01*
X120938800Y-91630214D01*
X120988015Y-91650600D01*
X121139586Y-91650600D01*
X121389586Y-91650600D01*
X121438800Y-91630214D01*
X121488015Y-91650600D01*
X121607800Y-91650600D01*
X121607800Y-91770386D01*
X121628185Y-91819600D01*
X121607800Y-91868815D01*
X121607800Y-92020386D01*
X121607800Y-92270386D01*
X121628185Y-92319600D01*
X121607800Y-92368815D01*
X121607800Y-92520386D01*
X121607800Y-92770386D01*
X121628185Y-92819600D01*
X121607800Y-92868815D01*
X121607800Y-93020386D01*
X121607800Y-93270386D01*
X121628185Y-93319600D01*
X121607800Y-93368815D01*
X121607800Y-93520386D01*
X121607800Y-93770386D01*
X121628185Y-93819600D01*
X121607800Y-93868815D01*
X121607800Y-94020386D01*
X121607800Y-94270386D01*
X121628185Y-94319600D01*
X121607800Y-94368815D01*
X121607800Y-94520386D01*
X121607800Y-94770386D01*
X121628185Y-94819600D01*
G36*
X126263400Y-100457800D02*
X120664630Y-100457800D01*
X120710200Y-100347785D01*
X120710200Y-100279172D01*
X120856810Y-100181210D01*
X121161610Y-99876410D01*
X121271731Y-99711604D01*
X121271731Y-99711603D01*
X121278146Y-99679350D01*
X121310399Y-99517200D01*
X121310400Y-99517200D01*
X121310400Y-99473620D01*
X121669610Y-99114411D01*
X121669610Y-99114410D01*
X121683069Y-99094268D01*
X121647800Y-99179415D01*
X121647800Y-99330986D01*
X121647800Y-99830986D01*
X121705804Y-99971020D01*
X121812981Y-100078196D01*
X121953015Y-100136200D01*
X122104586Y-100136200D01*
X123004586Y-100136200D01*
X123144620Y-100078196D01*
X123227273Y-99995541D01*
X123332903Y-99974531D01*
X123497710Y-99864410D01*
X124500240Y-98861880D01*
X125036166Y-98861880D01*
X125176200Y-98803876D01*
X125283376Y-98696699D01*
X125341380Y-98556665D01*
X125341380Y-98405094D01*
X125341380Y-97607534D01*
X125283376Y-97467500D01*
X125176199Y-97360324D01*
X125109750Y-97332800D01*
X125176200Y-97305276D01*
X125283376Y-97198099D01*
X125341380Y-97058065D01*
X125341380Y-96906494D01*
X125341380Y-96108934D01*
X125283376Y-95968900D01*
X125176199Y-95861724D01*
X125036165Y-95803720D01*
X124884594Y-95803720D01*
X124167993Y-95803720D01*
X124168025Y-95767039D01*
X124058050Y-95500879D01*
X124010549Y-95453295D01*
X124057335Y-95406592D01*
X124167774Y-95140624D01*
X124168025Y-94852639D01*
X124058050Y-94586479D01*
X124010549Y-94538895D01*
X124057335Y-94492192D01*
X124167774Y-94226224D01*
X124168025Y-93938239D01*
X124058050Y-93672079D01*
X123959749Y-93573606D01*
X124057335Y-93476192D01*
X124167774Y-93210224D01*
X124168025Y-92922239D01*
X124058050Y-92656079D01*
X123854592Y-92452265D01*
X123588624Y-92341826D01*
X123300639Y-92341575D01*
X123069800Y-92436955D01*
X123069800Y-92368814D01*
X123049414Y-92319599D01*
X123069800Y-92270385D01*
X123069800Y-92118814D01*
X123069800Y-91868814D01*
X123049414Y-91819599D01*
X123069800Y-91770385D01*
X123069800Y-91618814D01*
X123069800Y-91368814D01*
X123011796Y-91228780D01*
X122904619Y-91121604D01*
X122764585Y-91063600D01*
X122613014Y-91063600D01*
X122194800Y-91063600D01*
X122194800Y-90493814D01*
X122136796Y-90353780D01*
X122029619Y-90246604D01*
X121889585Y-90188600D01*
X121738014Y-90188600D01*
X121488014Y-90188600D01*
X121438799Y-90208985D01*
X121389585Y-90188600D01*
X121238014Y-90188600D01*
X120988014Y-90188600D01*
X120938799Y-90208985D01*
X120889585Y-90188600D01*
X120738014Y-90188600D01*
X120488014Y-90188600D01*
X120438799Y-90208985D01*
X120389585Y-90188600D01*
X120238014Y-90188600D01*
X119988014Y-90188600D01*
X119938799Y-90208985D01*
X119889585Y-90188600D01*
X119738014Y-90188600D01*
X119488014Y-90188600D01*
X119438799Y-90208985D01*
X119389585Y-90188600D01*
X119238014Y-90188600D01*
X118988014Y-90188600D01*
X118938799Y-90208985D01*
X118889585Y-90188600D01*
X118738014Y-90188600D01*
X118488014Y-90188600D01*
X118438799Y-90208985D01*
X118389585Y-90188600D01*
X118238014Y-90188600D01*
X117988014Y-90188600D01*
X117847980Y-90246604D01*
X117740804Y-90353781D01*
X117682800Y-90493815D01*
X117682800Y-90645386D01*
X117682800Y-91345386D01*
X117740804Y-91485420D01*
X117818984Y-91563600D01*
X117813014Y-91563600D01*
X117548854Y-91563600D01*
X117538800Y-91561600D01*
X117234210Y-91561600D01*
X117300935Y-91494992D01*
X117411374Y-91229024D01*
X117411625Y-90941039D01*
X117301650Y-90674879D01*
X117098192Y-90471065D01*
X116832224Y-90360626D01*
X116544239Y-90360375D01*
X116278079Y-90470350D01*
X116074265Y-90673808D01*
X115979927Y-90901000D01*
X115728814Y-90901000D01*
X115588780Y-90959004D01*
X115481604Y-91066181D01*
X115423600Y-91206215D01*
X115423600Y-91357786D01*
X115423600Y-92130810D01*
X115262079Y-92197550D01*
X115058265Y-92401008D01*
X114947826Y-92666976D01*
X114947575Y-92954961D01*
X115057550Y-93221121D01*
X115261008Y-93424935D01*
X115285258Y-93435004D01*
X115312390Y-93475610D01*
X115614270Y-93777490D01*
X115380588Y-93874046D01*
X115223875Y-94030485D01*
X115226974Y-94023024D01*
X115227225Y-93735039D01*
X115117250Y-93468879D01*
X114913792Y-93265065D01*
X114647824Y-93154626D01*
X114359839Y-93154375D01*
X114093679Y-93264350D01*
X113889865Y-93467808D01*
X113779426Y-93733776D01*
X113779175Y-94021761D01*
X113818306Y-94116466D01*
X113805269Y-94132400D01*
X113487200Y-94132400D01*
X113404358Y-94148878D01*
X113320692Y-94160463D01*
X113307637Y-94168117D01*
X113292797Y-94171069D01*
X113222572Y-94217991D01*
X113149703Y-94260716D01*
X112692503Y-94667116D01*
X112683370Y-94679183D01*
X112670790Y-94687590D01*
X112623866Y-94757815D01*
X112572895Y-94825172D01*
X112569076Y-94839814D01*
X112560669Y-94852397D01*
X112544189Y-94935243D01*
X112522877Y-95016969D01*
X112524952Y-95031957D01*
X112522000Y-95046800D01*
X112522000Y-97811167D01*
X112560669Y-98005570D01*
X112670790Y-98170377D01*
X114376823Y-99876410D01*
X114541630Y-99986531D01*
X114736033Y-100025200D01*
X117531280Y-100025200D01*
X117687290Y-100181210D01*
X117852096Y-100291331D01*
X117852097Y-100291331D01*
X117884349Y-100297746D01*
X117948200Y-100310446D01*
X117948200Y-100347786D01*
X117993769Y-100457800D01*
X112484025Y-100457800D01*
X112484025Y-96783039D01*
X112374736Y-96518539D01*
X112362414Y-96420795D01*
X112260814Y-96115995D01*
X112228630Y-96059535D01*
X112228630Y-95866364D01*
X112207942Y-95816419D01*
X112228630Y-95766475D01*
X112228630Y-95614904D01*
X112228630Y-95216124D01*
X112208468Y-95167449D01*
X112228630Y-95118775D01*
X112228630Y-94967204D01*
X112228630Y-94568424D01*
X112208468Y-94519749D01*
X112228630Y-94471075D01*
X112228630Y-94319504D01*
X112228630Y-93920724D01*
X112170626Y-93780690D01*
X112063449Y-93673514D01*
X111923415Y-93615510D01*
X111771844Y-93615510D01*
X109996236Y-93615510D01*
X109935650Y-93468879D01*
X109732192Y-93265065D01*
X109466224Y-93154626D01*
X109178239Y-93154375D01*
X108912079Y-93264350D01*
X108708265Y-93467808D01*
X108597826Y-93733776D01*
X108597575Y-94021761D01*
X108707550Y-94287921D01*
X108871585Y-94452243D01*
X108888582Y-94507975D01*
X108903069Y-94580803D01*
X108917279Y-94602070D01*
X108924742Y-94626539D01*
X108971938Y-94683872D01*
X109013190Y-94745610D01*
X109317295Y-95049716D01*
X109377107Y-95139231D01*
X109368789Y-95144790D01*
X109327074Y-95186504D01*
X109178239Y-95186375D01*
X108912079Y-95296350D01*
X108708265Y-95499808D01*
X108597826Y-95765776D01*
X108597575Y-96053761D01*
X108707550Y-96319921D01*
X108911008Y-96523735D01*
X109176976Y-96634174D01*
X109464961Y-96634425D01*
X109562872Y-96593968D01*
X109632831Y-96663926D01*
X109772865Y-96721930D01*
X109924436Y-96721930D01*
X111061076Y-96721930D01*
X111036226Y-96781776D01*
X111035975Y-97069761D01*
X111145950Y-97335921D01*
X111349408Y-97539735D01*
X111615376Y-97650174D01*
X111903361Y-97650425D01*
X112169521Y-97540450D01*
X112373335Y-97336992D01*
X112483774Y-97071024D01*
X112484025Y-96783039D01*
X112484025Y-100457800D01*
X106857000Y-100457800D01*
X106857000Y-89331000D01*
X126263400Y-89331000D01*
X126263400Y-100457800D01*
X126263400Y-100457800D01*
G37*
X126263400Y-100457800D02*
X120664630Y-100457800D01*
X120710200Y-100347785D01*
X120710200Y-100279172D01*
X120856810Y-100181210D01*
X121161610Y-99876410D01*
X121271731Y-99711604D01*
X121271731Y-99711603D01*
X121278146Y-99679350D01*
X121310399Y-99517200D01*
X121310400Y-99517200D01*
X121310400Y-99473620D01*
X121669610Y-99114411D01*
X121669610Y-99114410D01*
X121683069Y-99094268D01*
X121647800Y-99179415D01*
X121647800Y-99330986D01*
X121647800Y-99830986D01*
X121705804Y-99971020D01*
X121812981Y-100078196D01*
X121953015Y-100136200D01*
X122104586Y-100136200D01*
X123004586Y-100136200D01*
X123144620Y-100078196D01*
X123227273Y-99995541D01*
X123332903Y-99974531D01*
X123497710Y-99864410D01*
X124500240Y-98861880D01*
X125036166Y-98861880D01*
X125176200Y-98803876D01*
X125283376Y-98696699D01*
X125341380Y-98556665D01*
X125341380Y-98405094D01*
X125341380Y-97607534D01*
X125283376Y-97467500D01*
X125176199Y-97360324D01*
X125109750Y-97332800D01*
X125176200Y-97305276D01*
X125283376Y-97198099D01*
X125341380Y-97058065D01*
X125341380Y-96906494D01*
X125341380Y-96108934D01*
X125283376Y-95968900D01*
X125176199Y-95861724D01*
X125036165Y-95803720D01*
X124884594Y-95803720D01*
X124167993Y-95803720D01*
X124168025Y-95767039D01*
X124058050Y-95500879D01*
X124010549Y-95453295D01*
X124057335Y-95406592D01*
X124167774Y-95140624D01*
X124168025Y-94852639D01*
X124058050Y-94586479D01*
X124010549Y-94538895D01*
X124057335Y-94492192D01*
X124167774Y-94226224D01*
X124168025Y-93938239D01*
X124058050Y-93672079D01*
X123959749Y-93573606D01*
X124057335Y-93476192D01*
X124167774Y-93210224D01*
X124168025Y-92922239D01*
X124058050Y-92656079D01*
X123854592Y-92452265D01*
X123588624Y-92341826D01*
X123300639Y-92341575D01*
X123069800Y-92436955D01*
X123069800Y-92368814D01*
X123049414Y-92319599D01*
X123069800Y-92270385D01*
X123069800Y-92118814D01*
X123069800Y-91868814D01*
X123049414Y-91819599D01*
X123069800Y-91770385D01*
X123069800Y-91618814D01*
X123069800Y-91368814D01*
X123011796Y-91228780D01*
X122904619Y-91121604D01*
X122764585Y-91063600D01*
X122613014Y-91063600D01*
X122194800Y-91063600D01*
X122194800Y-90493814D01*
X122136796Y-90353780D01*
X122029619Y-90246604D01*
X121889585Y-90188600D01*
X121738014Y-90188600D01*
X121488014Y-90188600D01*
X121438799Y-90208985D01*
X121389585Y-90188600D01*
X121238014Y-90188600D01*
X120988014Y-90188600D01*
X120938799Y-90208985D01*
X120889585Y-90188600D01*
X120738014Y-90188600D01*
X120488014Y-90188600D01*
X120438799Y-90208985D01*
X120389585Y-90188600D01*
X120238014Y-90188600D01*
X119988014Y-90188600D01*
X119938799Y-90208985D01*
X119889585Y-90188600D01*
X119738014Y-90188600D01*
X119488014Y-90188600D01*
X119438799Y-90208985D01*
X119389585Y-90188600D01*
X119238014Y-90188600D01*
X118988014Y-90188600D01*
X118938799Y-90208985D01*
X118889585Y-90188600D01*
X118738014Y-90188600D01*
X118488014Y-90188600D01*
X118438799Y-90208985D01*
X118389585Y-90188600D01*
X118238014Y-90188600D01*
X117988014Y-90188600D01*
X117847980Y-90246604D01*
X117740804Y-90353781D01*
X117682800Y-90493815D01*
X117682800Y-90645386D01*
X117682800Y-91345386D01*
X117740804Y-91485420D01*
X117818984Y-91563600D01*
X117813014Y-91563600D01*
X117548854Y-91563600D01*
X117538800Y-91561600D01*
X117234210Y-91561600D01*
X117300935Y-91494992D01*
X117411374Y-91229024D01*
X117411625Y-90941039D01*
X117301650Y-90674879D01*
X117098192Y-90471065D01*
X116832224Y-90360626D01*
X116544239Y-90360375D01*
X116278079Y-90470350D01*
X116074265Y-90673808D01*
X115979927Y-90901000D01*
X115728814Y-90901000D01*
X115588780Y-90959004D01*
X115481604Y-91066181D01*
X115423600Y-91206215D01*
X115423600Y-91357786D01*
X115423600Y-92130810D01*
X115262079Y-92197550D01*
X115058265Y-92401008D01*
X114947826Y-92666976D01*
X114947575Y-92954961D01*
X115057550Y-93221121D01*
X115261008Y-93424935D01*
X115285258Y-93435004D01*
X115312390Y-93475610D01*
X115614270Y-93777490D01*
X115380588Y-93874046D01*
X115223875Y-94030485D01*
X115226974Y-94023024D01*
X115227225Y-93735039D01*
X115117250Y-93468879D01*
X114913792Y-93265065D01*
X114647824Y-93154626D01*
X114359839Y-93154375D01*
X114093679Y-93264350D01*
X113889865Y-93467808D01*
X113779426Y-93733776D01*
X113779175Y-94021761D01*
X113818306Y-94116466D01*
X113805269Y-94132400D01*
X113487200Y-94132400D01*
X113404358Y-94148878D01*
X113320692Y-94160463D01*
X113307637Y-94168117D01*
X113292797Y-94171069D01*
X113222572Y-94217991D01*
X113149703Y-94260716D01*
X112692503Y-94667116D01*
X112683370Y-94679183D01*
X112670790Y-94687590D01*
X112623866Y-94757815D01*
X112572895Y-94825172D01*
X112569076Y-94839814D01*
X112560669Y-94852397D01*
X112544189Y-94935243D01*
X112522877Y-95016969D01*
X112524952Y-95031957D01*
X112522000Y-95046800D01*
X112522000Y-97811167D01*
X112560669Y-98005570D01*
X112670790Y-98170377D01*
X114376823Y-99876410D01*
X114541630Y-99986531D01*
X114736033Y-100025200D01*
X117531280Y-100025200D01*
X117687290Y-100181210D01*
X117852096Y-100291331D01*
X117852097Y-100291331D01*
X117884349Y-100297746D01*
X117948200Y-100310446D01*
X117948200Y-100347786D01*
X117993769Y-100457800D01*
X112484025Y-100457800D01*
X112484025Y-96783039D01*
X112374736Y-96518539D01*
X112362414Y-96420795D01*
X112260814Y-96115995D01*
X112228630Y-96059535D01*
X112228630Y-95866364D01*
X112207942Y-95816419D01*
X112228630Y-95766475D01*
X112228630Y-95614904D01*
X112228630Y-95216124D01*
X112208468Y-95167449D01*
X112228630Y-95118775D01*
X112228630Y-94967204D01*
X112228630Y-94568424D01*
X112208468Y-94519749D01*
X112228630Y-94471075D01*
X112228630Y-94319504D01*
X112228630Y-93920724D01*
X112170626Y-93780690D01*
X112063449Y-93673514D01*
X111923415Y-93615510D01*
X111771844Y-93615510D01*
X109996236Y-93615510D01*
X109935650Y-93468879D01*
X109732192Y-93265065D01*
X109466224Y-93154626D01*
X109178239Y-93154375D01*
X108912079Y-93264350D01*
X108708265Y-93467808D01*
X108597826Y-93733776D01*
X108597575Y-94021761D01*
X108707550Y-94287921D01*
X108871585Y-94452243D01*
X108888582Y-94507975D01*
X108903069Y-94580803D01*
X108917279Y-94602070D01*
X108924742Y-94626539D01*
X108971938Y-94683872D01*
X109013190Y-94745610D01*
X109317295Y-95049716D01*
X109377107Y-95139231D01*
X109368789Y-95144790D01*
X109327074Y-95186504D01*
X109178239Y-95186375D01*
X108912079Y-95296350D01*
X108708265Y-95499808D01*
X108597826Y-95765776D01*
X108597575Y-96053761D01*
X108707550Y-96319921D01*
X108911008Y-96523735D01*
X109176976Y-96634174D01*
X109464961Y-96634425D01*
X109562872Y-96593968D01*
X109632831Y-96663926D01*
X109772865Y-96721930D01*
X109924436Y-96721930D01*
X111061076Y-96721930D01*
X111036226Y-96781776D01*
X111035975Y-97069761D01*
X111145950Y-97335921D01*
X111349408Y-97539735D01*
X111615376Y-97650174D01*
X111903361Y-97650425D01*
X112169521Y-97540450D01*
X112373335Y-97336992D01*
X112483774Y-97071024D01*
X112484025Y-96783039D01*
X112484025Y-100457800D01*
X106857000Y-100457800D01*
X106857000Y-89331000D01*
X126263400Y-89331000D01*
X126263400Y-100457800D01*
M02*
