%FSLAX46Y46*%
G04 Gerber Fmt 4.6, Leading zero omitted, Abs format (unit mm)*
G04 Created by KiCad (PCBNEW (2014-10-18 BZR 5203)-product) date 6/17/2015 2:44:21 PM*
%MOMM*%
G01*
G04 APERTURE LIST*
%ADD10C,0.100000*%
%ADD11R,7.498080X1.498600*%
%ADD12R,6.499860X0.998220*%
%ADD13R,2.200001X1.010000*%
%ADD14C,0.685800*%
%ADD15C,0.254000*%
%ADD16C,0.508000*%
G04 APERTURE END LIST*
D10*
D11*
X111244380Y-98383581D03*
X111244380Y-91388421D03*
D12*
X111742220Y-95884221D03*
X111742220Y-93887781D03*
D13*
X117551200Y-91084400D03*
X121229120Y-91084400D03*
X121229120Y-93624400D03*
X121229120Y-96164400D03*
X121229120Y-98704400D03*
X117551200Y-93624400D03*
X117551200Y-96164400D03*
X117551200Y-98704400D03*
D14*
X121462800Y-97231200D03*
X119481600Y-97637600D03*
X116687600Y-91084400D03*
X107899200Y-92659200D03*
X108966000Y-94894400D03*
X107899200Y-97028000D03*
X114554000Y-97028000D03*
X110591600Y-96875600D03*
X110490000Y-92862400D03*
X109220000Y-97078800D03*
X107899200Y-90992960D03*
X114503200Y-91389200D03*
X117538500Y-98323400D03*
X121323100Y-100228400D03*
X125476000Y-99771200D03*
X125476000Y-89916000D03*
X125476000Y-94843600D03*
X117373400Y-100241100D03*
X108204000Y-99872800D03*
X111760000Y-96926400D03*
X119227600Y-96824800D03*
X109321600Y-95910400D03*
X114503200Y-95885000D03*
X109321600Y-93878400D03*
X114503200Y-93878400D03*
X123444000Y-93065600D03*
X116586000Y-92608400D03*
X123444000Y-94081600D03*
X115671600Y-92811600D03*
X123444000Y-94996000D03*
X123444000Y-95910400D03*
D15*
X119837200Y-97282000D02*
X121412000Y-97282000D01*
X121412000Y-97282000D02*
X121462800Y-97231200D01*
D16*
X117551200Y-91084400D02*
X118821200Y-91084400D01*
X119837200Y-97282000D02*
X119481600Y-97637600D01*
D15*
X119837200Y-97282000D02*
X119837200Y-96266000D01*
X119837200Y-96266000D02*
X119430800Y-95859600D01*
D16*
X119430800Y-95859600D02*
X119430800Y-91694000D01*
X119430800Y-91694000D02*
X118821200Y-91084400D01*
D15*
X116687600Y-91084400D02*
X117551200Y-91084400D01*
X108294661Y-91388421D02*
X111244380Y-91388421D01*
X107899200Y-90992960D02*
X108294661Y-91388421D01*
X114503200Y-91389200D02*
X114502421Y-91388421D01*
X114502421Y-91388421D02*
X111244380Y-91388421D01*
X114199179Y-91388421D02*
X111244380Y-91388421D01*
X117538500Y-98323400D02*
X117487700Y-98323400D01*
X117538500Y-98323400D02*
X117487700Y-98323400D01*
X125476000Y-99860100D02*
X125234700Y-100101400D01*
X125234700Y-100101400D02*
X121323100Y-100228400D01*
X125476000Y-94843600D02*
X125476000Y-99771200D01*
X125476000Y-89916000D02*
X125476000Y-94843600D01*
X125476000Y-99771200D02*
X125476000Y-99860100D01*
D16*
X111760000Y-97867961D02*
X111760000Y-96926400D01*
X111760000Y-97867961D02*
X111244380Y-98383581D01*
D15*
X110829581Y-98383581D02*
X111244380Y-98383581D01*
X108848381Y-98383581D02*
X111244380Y-98383581D01*
X108695981Y-98383581D02*
X111244380Y-98383581D01*
X111634761Y-97993200D02*
X111244380Y-98383581D01*
D16*
X119227600Y-96824800D02*
X118719600Y-97332800D01*
X118719600Y-97332800D02*
X116281200Y-97332800D01*
X116281200Y-97332800D02*
X115620800Y-97993200D01*
X115620800Y-97993200D02*
X111634761Y-97993200D01*
D15*
X114478579Y-95884221D02*
X111742220Y-95884221D01*
X109321600Y-95910400D02*
X111716041Y-95910400D01*
X111716041Y-95910400D02*
X111742220Y-95884221D01*
X114224579Y-95884221D02*
X111742220Y-95884221D01*
X114502421Y-95884221D02*
X111742220Y-95884221D01*
X114503200Y-95885000D02*
X114502421Y-95884221D01*
X114493819Y-93887781D02*
X111742220Y-93887781D01*
X114207781Y-93887781D02*
X111742220Y-93887781D01*
X111700801Y-93929200D02*
X109321600Y-93878400D01*
X111700801Y-93929200D02*
X111742220Y-93887781D01*
X114239819Y-93887781D02*
X111742220Y-93887781D01*
X114503200Y-93878400D02*
X114493819Y-93887781D01*
X121462800Y-91084400D02*
X121229120Y-91084400D01*
X123444000Y-93065600D02*
X121462800Y-91084400D01*
X117449600Y-93624400D02*
X117551200Y-93624400D01*
X116586000Y-92608400D02*
X117449600Y-93624400D01*
X123444000Y-94081600D02*
X122986800Y-93624400D01*
X122986800Y-93624400D02*
X121229120Y-93624400D01*
X115671600Y-92811600D02*
X116027200Y-93167200D01*
X116027200Y-93167200D02*
X116027200Y-94640400D01*
X116027200Y-94640400D02*
X117551200Y-96164400D01*
X117551200Y-96164400D02*
X117551200Y-96113600D01*
X122275600Y-96164400D02*
X121229120Y-96164400D01*
X123444000Y-94996000D02*
X122275600Y-96164400D01*
X122834400Y-98704400D02*
X121229120Y-98704400D01*
X123444000Y-98094800D02*
X122834400Y-98704400D01*
X123444000Y-95910400D02*
X123444000Y-98094800D01*
G36*
X111111803Y-97253281D02*
X107670600Y-97253281D01*
X107670600Y-96748600D01*
X108378527Y-96748600D01*
X108416505Y-96764331D01*
X108568076Y-96764331D01*
X111043469Y-96764331D01*
X111036226Y-96781776D01*
X111035975Y-97069761D01*
X111111803Y-97253281D01*
X111111803Y-97253281D01*
G37*
X111111803Y-97253281D02*
X107670600Y-97253281D01*
X107670600Y-96748600D01*
X108378527Y-96748600D01*
X108416505Y-96764331D01*
X108568076Y-96764331D01*
X111043469Y-96764331D01*
X111036226Y-96781776D01*
X111035975Y-97069761D01*
X111111803Y-97253281D01*
G36*
X116123446Y-95455066D02*
X116070200Y-95583615D01*
X116070200Y-95735186D01*
X116070200Y-96739769D01*
X116038196Y-96746136D01*
X115832187Y-96883787D01*
X115357774Y-97358200D01*
X115256154Y-97358200D01*
X115209239Y-97311285D01*
X115069205Y-97253281D01*
X114917634Y-97253281D01*
X112408094Y-97253281D01*
X112483774Y-97071024D01*
X112484025Y-96783039D01*
X112476295Y-96764331D01*
X115067936Y-96764331D01*
X115207970Y-96706327D01*
X115315146Y-96599150D01*
X115373150Y-96459116D01*
X115373150Y-96307545D01*
X115373150Y-95309325D01*
X115315146Y-95169291D01*
X115207969Y-95062115D01*
X115067935Y-95004111D01*
X114916364Y-95004111D01*
X108635800Y-95004111D01*
X108635800Y-94767891D01*
X115067936Y-94767891D01*
X115207970Y-94709887D01*
X115315146Y-94602710D01*
X115373150Y-94462676D01*
X115373150Y-94311105D01*
X115373150Y-93471500D01*
X115519200Y-93532145D01*
X115519200Y-94640400D01*
X115557869Y-94834803D01*
X115667990Y-94999610D01*
X116123446Y-95455066D01*
X116123446Y-95455066D01*
G37*
X116123446Y-95455066D02*
X116070200Y-95583615D01*
X116070200Y-95735186D01*
X116070200Y-96739769D01*
X116038196Y-96746136D01*
X115832187Y-96883787D01*
X115357774Y-97358200D01*
X115256154Y-97358200D01*
X115209239Y-97311285D01*
X115069205Y-97253281D01*
X114917634Y-97253281D01*
X112408094Y-97253281D01*
X112483774Y-97071024D01*
X112484025Y-96783039D01*
X112476295Y-96764331D01*
X115067936Y-96764331D01*
X115207970Y-96706327D01*
X115315146Y-96599150D01*
X115373150Y-96459116D01*
X115373150Y-96307545D01*
X115373150Y-95309325D01*
X115315146Y-95169291D01*
X115207969Y-95062115D01*
X115067935Y-95004111D01*
X114916364Y-95004111D01*
X108635800Y-95004111D01*
X108635800Y-94767891D01*
X115067936Y-94767891D01*
X115207970Y-94709887D01*
X115315146Y-94602710D01*
X115373150Y-94462676D01*
X115373150Y-94311105D01*
X115373150Y-93471500D01*
X115519200Y-93532145D01*
X115519200Y-94640400D01*
X115557869Y-94834803D01*
X115667990Y-94999610D01*
X116123446Y-95455066D01*
G36*
X126263400Y-100457000D02*
X107670600Y-100457000D01*
X107670600Y-99513881D01*
X115069206Y-99513881D01*
X115209240Y-99455877D01*
X115316416Y-99348700D01*
X115374420Y-99208666D01*
X115374420Y-99057095D01*
X115374420Y-98628200D01*
X115620800Y-98628200D01*
X115863804Y-98579864D01*
X116069813Y-98442213D01*
X116544226Y-97967800D01*
X118719600Y-97967800D01*
X118826028Y-97946630D01*
X118867550Y-98047121D01*
X119071008Y-98250935D01*
X119336976Y-98361374D01*
X119624961Y-98361625D01*
X119748120Y-98310736D01*
X119748120Y-99285186D01*
X119806124Y-99425220D01*
X119913301Y-99532396D01*
X120053335Y-99590400D01*
X120204906Y-99590400D01*
X122404906Y-99590400D01*
X122544940Y-99532396D01*
X122652116Y-99425219D01*
X122710120Y-99285185D01*
X122710120Y-99212400D01*
X122834400Y-99212400D01*
X123028803Y-99173731D01*
X123193610Y-99063610D01*
X123803210Y-98454010D01*
X123803211Y-98454010D01*
X123913331Y-98289203D01*
X123952000Y-98094800D01*
X123952000Y-96426143D01*
X124057335Y-96320992D01*
X124167774Y-96055024D01*
X124168025Y-95767039D01*
X124058050Y-95500879D01*
X124010549Y-95453295D01*
X124057335Y-95406592D01*
X124167774Y-95140624D01*
X124168025Y-94852639D01*
X124058050Y-94586479D01*
X124010549Y-94538895D01*
X124057335Y-94492192D01*
X124167774Y-94226224D01*
X124168025Y-93938239D01*
X124058050Y-93672079D01*
X123959749Y-93573606D01*
X124057335Y-93476192D01*
X124167774Y-93210224D01*
X124168025Y-92922239D01*
X124058050Y-92656079D01*
X123854592Y-92452265D01*
X123588624Y-92341826D01*
X123438515Y-92341695D01*
X122710120Y-91613300D01*
X122710120Y-91513614D01*
X122710120Y-90503614D01*
X122652116Y-90363580D01*
X122544939Y-90256404D01*
X122404905Y-90198400D01*
X122253334Y-90198400D01*
X120053334Y-90198400D01*
X119913300Y-90256404D01*
X119806124Y-90363581D01*
X119748120Y-90503615D01*
X119748120Y-90655186D01*
X119748120Y-91113294D01*
X119270213Y-90635387D01*
X119064204Y-90497736D01*
X119026673Y-90490270D01*
X118974196Y-90363580D01*
X118867019Y-90256404D01*
X118726985Y-90198400D01*
X118575414Y-90198400D01*
X116375414Y-90198400D01*
X116235380Y-90256404D01*
X116128204Y-90363581D01*
X116070200Y-90503615D01*
X116070200Y-90655186D01*
X116070200Y-90683597D01*
X115963826Y-90939776D01*
X115963575Y-91227761D01*
X116070200Y-91485813D01*
X116070200Y-91665186D01*
X116128204Y-91805220D01*
X116235381Y-91912396D01*
X116305015Y-91941239D01*
X116176479Y-91994350D01*
X116004516Y-92166011D01*
X115816224Y-92087826D01*
X115528239Y-92087575D01*
X115262079Y-92197550D01*
X115058265Y-92401008D01*
X114947826Y-92666976D01*
X114947575Y-92954961D01*
X114969354Y-93007671D01*
X114916364Y-93007671D01*
X108416504Y-93007671D01*
X108337972Y-93040200D01*
X107670600Y-93040200D01*
X107670600Y-89331000D01*
X126263400Y-89331000D01*
X126263400Y-100457000D01*
X126263400Y-100457000D01*
G37*
X126263400Y-100457000D02*
X107670600Y-100457000D01*
X107670600Y-99513881D01*
X115069206Y-99513881D01*
X115209240Y-99455877D01*
X115316416Y-99348700D01*
X115374420Y-99208666D01*
X115374420Y-99057095D01*
X115374420Y-98628200D01*
X115620800Y-98628200D01*
X115863804Y-98579864D01*
X116069813Y-98442213D01*
X116544226Y-97967800D01*
X118719600Y-97967800D01*
X118826028Y-97946630D01*
X118867550Y-98047121D01*
X119071008Y-98250935D01*
X119336976Y-98361374D01*
X119624961Y-98361625D01*
X119748120Y-98310736D01*
X119748120Y-99285186D01*
X119806124Y-99425220D01*
X119913301Y-99532396D01*
X120053335Y-99590400D01*
X120204906Y-99590400D01*
X122404906Y-99590400D01*
X122544940Y-99532396D01*
X122652116Y-99425219D01*
X122710120Y-99285185D01*
X122710120Y-99212400D01*
X122834400Y-99212400D01*
X123028803Y-99173731D01*
X123193610Y-99063610D01*
X123803210Y-98454010D01*
X123803211Y-98454010D01*
X123913331Y-98289203D01*
X123952000Y-98094800D01*
X123952000Y-96426143D01*
X124057335Y-96320992D01*
X124167774Y-96055024D01*
X124168025Y-95767039D01*
X124058050Y-95500879D01*
X124010549Y-95453295D01*
X124057335Y-95406592D01*
X124167774Y-95140624D01*
X124168025Y-94852639D01*
X124058050Y-94586479D01*
X124010549Y-94538895D01*
X124057335Y-94492192D01*
X124167774Y-94226224D01*
X124168025Y-93938239D01*
X124058050Y-93672079D01*
X123959749Y-93573606D01*
X124057335Y-93476192D01*
X124167774Y-93210224D01*
X124168025Y-92922239D01*
X124058050Y-92656079D01*
X123854592Y-92452265D01*
X123588624Y-92341826D01*
X123438515Y-92341695D01*
X122710120Y-91613300D01*
X122710120Y-91513614D01*
X122710120Y-90503614D01*
X122652116Y-90363580D01*
X122544939Y-90256404D01*
X122404905Y-90198400D01*
X122253334Y-90198400D01*
X120053334Y-90198400D01*
X119913300Y-90256404D01*
X119806124Y-90363581D01*
X119748120Y-90503615D01*
X119748120Y-90655186D01*
X119748120Y-91113294D01*
X119270213Y-90635387D01*
X119064204Y-90497736D01*
X119026673Y-90490270D01*
X118974196Y-90363580D01*
X118867019Y-90256404D01*
X118726985Y-90198400D01*
X118575414Y-90198400D01*
X116375414Y-90198400D01*
X116235380Y-90256404D01*
X116128204Y-90363581D01*
X116070200Y-90503615D01*
X116070200Y-90655186D01*
X116070200Y-90683597D01*
X115963826Y-90939776D01*
X115963575Y-91227761D01*
X116070200Y-91485813D01*
X116070200Y-91665186D01*
X116128204Y-91805220D01*
X116235381Y-91912396D01*
X116305015Y-91941239D01*
X116176479Y-91994350D01*
X116004516Y-92166011D01*
X115816224Y-92087826D01*
X115528239Y-92087575D01*
X115262079Y-92197550D01*
X115058265Y-92401008D01*
X114947826Y-92666976D01*
X114947575Y-92954961D01*
X114969354Y-93007671D01*
X114916364Y-93007671D01*
X108416504Y-93007671D01*
X108337972Y-93040200D01*
X107670600Y-93040200D01*
X107670600Y-89331000D01*
X126263400Y-89331000D01*
X126263400Y-100457000D01*
M02*
