%FSLAX46Y46*%
G04 Gerber Fmt 4.6, Leading zero omitted, Abs format (unit mm)*
G04 Created by KiCad (PCBNEW (2014-10-18 BZR 5203)-product) date 3/11/2015 2:43:32 PM*
%MOMM*%
G01*
G04 APERTURE LIST*
%ADD10C,0.100000*%
%ADD11R,3.810000X1.524000*%
%ADD12R,7.498080X1.498600*%
%ADD13R,6.499860X0.998220*%
%ADD14C,0.685800*%
%ADD15C,0.254000*%
G04 APERTURE END LIST*
D10*
D11*
X126136400Y-90779600D03*
X126136400Y-93319600D03*
X126136400Y-95859600D03*
X126136400Y-98399600D03*
D12*
X111244380Y-98383581D03*
X111244380Y-91388421D03*
D13*
X111742220Y-95884221D03*
X111742220Y-93887781D03*
D14*
X119062500Y-90678000D03*
X120650000Y-93065600D03*
X123748800Y-97688400D03*
X116490750Y-93122750D03*
X121475500Y-93281500D03*
X108013500Y-91376500D03*
X115824000Y-100076000D03*
X123698000Y-98996500D03*
X123545600Y-91694000D03*
X123444000Y-93027500D03*
X128333500Y-97155000D03*
X119786400Y-93065600D03*
X114300000Y-95910400D03*
X114249200Y-93878400D03*
D15*
X120650000Y-93065600D02*
X120700800Y-93116400D01*
X120700800Y-93116400D02*
X120700800Y-94640400D01*
X120700800Y-94640400D02*
X123748800Y-97688400D01*
X116484400Y-93116400D02*
X115925600Y-93116400D01*
X115925600Y-93116400D02*
X115620800Y-92811600D01*
X115620800Y-92811600D02*
X115620800Y-91846400D01*
X115620800Y-91846400D02*
X115162821Y-91388421D01*
X115162821Y-91388421D02*
X111244380Y-91388421D01*
X116490750Y-93122750D02*
X116484400Y-93116400D01*
X111244380Y-91388421D02*
X115366021Y-91388421D01*
X115366021Y-91388421D02*
X115417600Y-91440000D01*
X126136400Y-98399600D02*
X125577600Y-98399600D01*
X121475500Y-93281500D02*
X121412000Y-93218000D01*
X121412000Y-93218000D02*
X121412000Y-92329000D01*
X121412000Y-92329000D02*
X121285000Y-92202000D01*
X121285000Y-92202000D02*
X117411500Y-92202000D01*
X117411500Y-92202000D02*
X116490750Y-93122750D01*
X108025421Y-91388421D02*
X111244380Y-91388421D01*
X108013500Y-91376500D02*
X108025421Y-91388421D01*
X124294900Y-98399600D02*
X126136400Y-98399600D01*
X123698000Y-98996500D02*
X124294900Y-98399600D01*
X124510800Y-90779600D02*
X126136400Y-90779600D01*
X124460000Y-90779600D02*
X123545600Y-91694000D01*
X126136400Y-90779600D02*
X124460000Y-90779600D01*
X123444000Y-93027500D02*
X123736100Y-93319600D01*
X123736100Y-93319600D02*
X126136400Y-93319600D01*
X127304800Y-95859600D02*
X126136400Y-95859600D01*
X127203200Y-95859600D02*
X126136400Y-95859600D01*
X127038100Y-95859600D02*
X128333500Y-97155000D01*
X126136400Y-95859600D02*
X127038100Y-95859600D01*
X118684819Y-98383581D02*
X111244380Y-98383581D01*
X119735600Y-97332800D02*
X118684819Y-98383581D01*
X119735600Y-93116400D02*
X119735600Y-97332800D01*
X119786400Y-93065600D02*
X119735600Y-93116400D01*
X111244380Y-98383581D02*
X113896919Y-98383581D01*
X113614979Y-95884221D02*
X111742220Y-95884221D01*
X111760000Y-95885000D02*
X111759221Y-95884221D01*
X114273821Y-95884221D02*
X111742220Y-95884221D01*
X114300000Y-95910400D02*
X114273821Y-95884221D01*
X114341419Y-93887781D02*
X111742220Y-93887781D01*
X113852181Y-93887781D02*
X111742220Y-93887781D01*
X114239819Y-93887781D02*
X111742220Y-93887781D01*
X114249200Y-93878400D02*
X114239819Y-93887781D01*
G36*
X128524000Y-96450275D02*
X128478124Y-96431226D01*
X128422400Y-96431177D01*
X128422400Y-95021814D01*
X128422400Y-94157385D01*
X128422400Y-94005814D01*
X128422400Y-92481814D01*
X128364396Y-92341780D01*
X128257219Y-92234604D01*
X128117185Y-92176600D01*
X127965614Y-92176600D01*
X124155614Y-92176600D01*
X124037997Y-92225318D01*
X124158935Y-92104592D01*
X124234504Y-91922600D01*
X124307186Y-91922600D01*
X128117186Y-91922600D01*
X128257220Y-91864596D01*
X128364396Y-91757419D01*
X128422400Y-91617385D01*
X128422400Y-91465814D01*
X128422400Y-89941814D01*
X128364396Y-89801780D01*
X128257219Y-89694604D01*
X128117185Y-89636600D01*
X127965614Y-89636600D01*
X124155614Y-89636600D01*
X124015580Y-89694604D01*
X123908404Y-89801781D01*
X123850400Y-89941815D01*
X123850400Y-90093386D01*
X123850400Y-90670780D01*
X123551075Y-90970104D01*
X123402239Y-90969975D01*
X123136079Y-91079950D01*
X122932265Y-91283408D01*
X122821826Y-91549376D01*
X122821575Y-91837361D01*
X122931550Y-92103521D01*
X123135008Y-92307335D01*
X123212959Y-92339703D01*
X123034479Y-92413450D01*
X122830665Y-92616908D01*
X122720226Y-92882876D01*
X122719975Y-93170861D01*
X122829950Y-93437021D01*
X123033408Y-93640835D01*
X123299376Y-93751274D01*
X123485582Y-93751436D01*
X123541697Y-93788931D01*
X123736100Y-93827600D01*
X123850400Y-93827600D01*
X123850400Y-94157386D01*
X123908404Y-94297420D01*
X124015581Y-94404596D01*
X124155615Y-94462600D01*
X124307186Y-94462600D01*
X128117186Y-94462600D01*
X128257220Y-94404596D01*
X128364396Y-94297419D01*
X128422400Y-94157385D01*
X128422400Y-95021814D01*
X128364396Y-94881780D01*
X128257219Y-94774604D01*
X128117185Y-94716600D01*
X127965614Y-94716600D01*
X124155614Y-94716600D01*
X124015580Y-94774604D01*
X123908404Y-94881781D01*
X123850400Y-95021815D01*
X123850400Y-95173386D01*
X123850400Y-96697386D01*
X123908404Y-96837420D01*
X124015581Y-96944596D01*
X124155615Y-97002600D01*
X124105091Y-97002600D01*
X124044909Y-97027527D01*
X123893424Y-96964626D01*
X123743315Y-96964495D01*
X121208800Y-94429980D01*
X121208800Y-93530631D01*
X121263335Y-93476192D01*
X121373774Y-93210224D01*
X121374025Y-92922239D01*
X121264050Y-92656079D01*
X121060592Y-92452265D01*
X120794624Y-92341826D01*
X120506639Y-92341575D01*
X120240479Y-92451550D01*
X120218339Y-92473650D01*
X120196992Y-92452265D01*
X119931024Y-92341826D01*
X119786525Y-92341700D01*
X119786525Y-90534639D01*
X119676550Y-90268479D01*
X119473092Y-90064665D01*
X119207124Y-89954226D01*
X118919139Y-89953975D01*
X118652979Y-90063950D01*
X118449165Y-90267408D01*
X118338726Y-90533376D01*
X118338475Y-90821361D01*
X118448450Y-91087521D01*
X118651908Y-91291335D01*
X118917876Y-91401774D01*
X119205861Y-91402025D01*
X119472021Y-91292050D01*
X119675835Y-91088592D01*
X119786274Y-90822624D01*
X119786525Y-90534639D01*
X119786525Y-92341700D01*
X119643039Y-92341575D01*
X119376879Y-92451550D01*
X119173065Y-92655008D01*
X119062626Y-92920976D01*
X119062375Y-93208961D01*
X119172350Y-93475121D01*
X119227600Y-93530467D01*
X119227600Y-97122380D01*
X118474399Y-97875581D01*
X115506500Y-97875581D01*
X115506500Y-92522666D01*
X115531747Y-92497420D01*
X115628420Y-92264031D01*
X115628420Y-92011412D01*
X115628420Y-91674171D01*
X115506500Y-91552251D01*
X115506500Y-91224591D01*
X115628420Y-91102671D01*
X115628420Y-90765430D01*
X115628420Y-90512811D01*
X115531747Y-90279422D01*
X115506500Y-90254175D01*
X115506500Y-89408000D01*
X128524000Y-89408000D01*
X128524000Y-96450275D01*
X128524000Y-96450275D01*
G37*
X128524000Y-96450275D02*
X128478124Y-96431226D01*
X128422400Y-96431177D01*
X128422400Y-95021814D01*
X128422400Y-94157385D01*
X128422400Y-94005814D01*
X128422400Y-92481814D01*
X128364396Y-92341780D01*
X128257219Y-92234604D01*
X128117185Y-92176600D01*
X127965614Y-92176600D01*
X124155614Y-92176600D01*
X124037997Y-92225318D01*
X124158935Y-92104592D01*
X124234504Y-91922600D01*
X124307186Y-91922600D01*
X128117186Y-91922600D01*
X128257220Y-91864596D01*
X128364396Y-91757419D01*
X128422400Y-91617385D01*
X128422400Y-91465814D01*
X128422400Y-89941814D01*
X128364396Y-89801780D01*
X128257219Y-89694604D01*
X128117185Y-89636600D01*
X127965614Y-89636600D01*
X124155614Y-89636600D01*
X124015580Y-89694604D01*
X123908404Y-89801781D01*
X123850400Y-89941815D01*
X123850400Y-90093386D01*
X123850400Y-90670780D01*
X123551075Y-90970104D01*
X123402239Y-90969975D01*
X123136079Y-91079950D01*
X122932265Y-91283408D01*
X122821826Y-91549376D01*
X122821575Y-91837361D01*
X122931550Y-92103521D01*
X123135008Y-92307335D01*
X123212959Y-92339703D01*
X123034479Y-92413450D01*
X122830665Y-92616908D01*
X122720226Y-92882876D01*
X122719975Y-93170861D01*
X122829950Y-93437021D01*
X123033408Y-93640835D01*
X123299376Y-93751274D01*
X123485582Y-93751436D01*
X123541697Y-93788931D01*
X123736100Y-93827600D01*
X123850400Y-93827600D01*
X123850400Y-94157386D01*
X123908404Y-94297420D01*
X124015581Y-94404596D01*
X124155615Y-94462600D01*
X124307186Y-94462600D01*
X128117186Y-94462600D01*
X128257220Y-94404596D01*
X128364396Y-94297419D01*
X128422400Y-94157385D01*
X128422400Y-95021814D01*
X128364396Y-94881780D01*
X128257219Y-94774604D01*
X128117185Y-94716600D01*
X127965614Y-94716600D01*
X124155614Y-94716600D01*
X124015580Y-94774604D01*
X123908404Y-94881781D01*
X123850400Y-95021815D01*
X123850400Y-95173386D01*
X123850400Y-96697386D01*
X123908404Y-96837420D01*
X124015581Y-96944596D01*
X124155615Y-97002600D01*
X124105091Y-97002600D01*
X124044909Y-97027527D01*
X123893424Y-96964626D01*
X123743315Y-96964495D01*
X121208800Y-94429980D01*
X121208800Y-93530631D01*
X121263335Y-93476192D01*
X121373774Y-93210224D01*
X121374025Y-92922239D01*
X121264050Y-92656079D01*
X121060592Y-92452265D01*
X120794624Y-92341826D01*
X120506639Y-92341575D01*
X120240479Y-92451550D01*
X120218339Y-92473650D01*
X120196992Y-92452265D01*
X119931024Y-92341826D01*
X119786525Y-92341700D01*
X119786525Y-90534639D01*
X119676550Y-90268479D01*
X119473092Y-90064665D01*
X119207124Y-89954226D01*
X118919139Y-89953975D01*
X118652979Y-90063950D01*
X118449165Y-90267408D01*
X118338726Y-90533376D01*
X118338475Y-90821361D01*
X118448450Y-91087521D01*
X118651908Y-91291335D01*
X118917876Y-91401774D01*
X119205861Y-91402025D01*
X119472021Y-91292050D01*
X119675835Y-91088592D01*
X119786274Y-90822624D01*
X119786525Y-90534639D01*
X119786525Y-92341700D01*
X119643039Y-92341575D01*
X119376879Y-92451550D01*
X119173065Y-92655008D01*
X119062626Y-92920976D01*
X119062375Y-93208961D01*
X119172350Y-93475121D01*
X119227600Y-93530467D01*
X119227600Y-97122380D01*
X118474399Y-97875581D01*
X115506500Y-97875581D01*
X115506500Y-92522666D01*
X115531747Y-92497420D01*
X115628420Y-92264031D01*
X115628420Y-92011412D01*
X115628420Y-91674171D01*
X115506500Y-91552251D01*
X115506500Y-91224591D01*
X115628420Y-91102671D01*
X115628420Y-90765430D01*
X115628420Y-90512811D01*
X115531747Y-90279422D01*
X115506500Y-90254175D01*
X115506500Y-89408000D01*
X128524000Y-89408000D01*
X128524000Y-96450275D01*
G36*
X128524000Y-100393500D02*
X126009400Y-100393500D01*
X115506500Y-100393500D01*
X115506500Y-98891581D01*
X118684819Y-98891581D01*
X118879222Y-98852912D01*
X119044029Y-98742791D01*
X120094810Y-97692010D01*
X120204931Y-97527203D01*
X120243600Y-97332800D01*
X120243600Y-94852958D01*
X120341590Y-94999610D01*
X123024904Y-97682924D01*
X123024775Y-97831761D01*
X123134750Y-98097921D01*
X123338208Y-98301735D01*
X123596400Y-98408945D01*
X123596400Y-98526602D01*
X123755148Y-98526602D01*
X123596400Y-98685350D01*
X123596400Y-99035291D01*
X123596400Y-99287910D01*
X123693073Y-99521299D01*
X123871702Y-99699927D01*
X124105091Y-99796600D01*
X125850650Y-99796600D01*
X126009400Y-99637850D01*
X126009400Y-98526600D01*
X125989400Y-98526600D01*
X125989400Y-98272600D01*
X126009400Y-98272600D01*
X126009400Y-97161350D01*
X125850650Y-97002600D01*
X126422150Y-97002600D01*
X126263400Y-97161350D01*
X126263400Y-98272600D01*
X126283400Y-98272600D01*
X126283400Y-98526600D01*
X126263400Y-98526600D01*
X126263400Y-99637850D01*
X126422150Y-99796600D01*
X128167709Y-99796600D01*
X128401098Y-99699927D01*
X128524000Y-99577025D01*
X128524000Y-100393500D01*
X128524000Y-100393500D01*
G37*
X128524000Y-100393500D02*
X126009400Y-100393500D01*
X115506500Y-100393500D01*
X115506500Y-98891581D01*
X118684819Y-98891581D01*
X118879222Y-98852912D01*
X119044029Y-98742791D01*
X120094810Y-97692010D01*
X120204931Y-97527203D01*
X120243600Y-97332800D01*
X120243600Y-94852958D01*
X120341590Y-94999610D01*
X123024904Y-97682924D01*
X123024775Y-97831761D01*
X123134750Y-98097921D01*
X123338208Y-98301735D01*
X123596400Y-98408945D01*
X123596400Y-98526602D01*
X123755148Y-98526602D01*
X123596400Y-98685350D01*
X123596400Y-99035291D01*
X123596400Y-99287910D01*
X123693073Y-99521299D01*
X123871702Y-99699927D01*
X124105091Y-99796600D01*
X125850650Y-99796600D01*
X126009400Y-99637850D01*
X126009400Y-98526600D01*
X125989400Y-98526600D01*
X125989400Y-98272600D01*
X126009400Y-98272600D01*
X126009400Y-97161350D01*
X125850650Y-97002600D01*
X126422150Y-97002600D01*
X126263400Y-97161350D01*
X126263400Y-98272600D01*
X126283400Y-98272600D01*
X126283400Y-98526600D01*
X126263400Y-98526600D01*
X126263400Y-99637850D01*
X126422150Y-99796600D01*
X128167709Y-99796600D01*
X128401098Y-99699927D01*
X128524000Y-99577025D01*
X128524000Y-100393500D01*
M02*
