M48
INCH,TZ
T1C0.013
%
G90
G05
T1
X42480Y-35824
X42480Y-36480
X42480Y-38200
X42600Y-39320
X42900Y-37360
X43000Y-38220
X43040Y-36960
X43040Y-37760
X43500Y-36560
X43540Y-38140
X44000Y-38160
X45080Y-35980
X45080Y-36960
X45080Y-37750
X45100Y-38200
X45540Y-36540
X45900Y-36460
X45940Y-35860
X46210Y-39465
X46275Y-38710
X46940Y-38120
X47040Y-38440
X47765Y-39460
X47820Y-38280
X48600Y-36640
X48600Y-37040
X48600Y-37400
X48600Y-37760
X49400Y-35400
X49400Y-37340
X49400Y-39280
T0
M30
