%FSLAX46Y46*%
G04 Gerber Fmt 4.6, Leading zero omitted, Abs format (unit mm)*
G04 Created by KiCad (PCBNEW (2014-10-18 BZR 5203)-product) date 3/16/2015 9:41:57 AM*
%MOMM*%
G01*
G04 APERTURE LIST*
%ADD10C,0.100000*%
%ADD11R,0.250000X0.700000*%
%ADD12R,0.700000X0.250000*%
%ADD13R,1.035000X1.035000*%
%ADD14R,0.797560X0.797560*%
%ADD15R,0.698500X0.899160*%
%ADD16R,0.899160X0.698500*%
%ADD17R,3.810000X1.524000*%
G04 APERTURE END LIST*
D10*
D11*
X117249000Y-94374000D03*
X117749000Y-94374000D03*
X118249000Y-94374000D03*
X118749000Y-94374000D03*
X119249000Y-94374000D03*
X119749000Y-94374000D03*
X120249000Y-94374000D03*
X120749000Y-94374000D03*
D12*
X121399000Y-95024000D03*
X121399000Y-95524000D03*
X121399000Y-96024000D03*
X121399000Y-96524000D03*
X121399000Y-97024000D03*
X121399000Y-97524000D03*
X121399000Y-98024000D03*
X121399000Y-98524000D03*
D11*
X120749000Y-99174000D03*
X120249000Y-99174000D03*
X119749000Y-99174000D03*
X119249000Y-99174000D03*
X118749000Y-99174000D03*
X118249000Y-99174000D03*
X117749000Y-99174000D03*
X117249000Y-99174000D03*
D12*
X116599000Y-98524000D03*
X116599000Y-98024000D03*
X116599000Y-97524000D03*
X116599000Y-97024000D03*
X116599000Y-96524000D03*
X116599000Y-96024000D03*
X116599000Y-95524000D03*
X116599000Y-95024000D03*
D13*
X119861500Y-97636500D03*
X118136500Y-97636500D03*
X119861500Y-95911500D03*
X118136500Y-95911500D03*
D14*
X121970800Y-89979500D03*
X120472200Y-89979500D03*
D15*
X116395500Y-90525600D03*
X117690900Y-90525600D03*
X116395500Y-91948000D03*
X117690900Y-91948000D03*
X119849900Y-91643200D03*
X121145300Y-91643200D03*
D16*
X122732800Y-98158300D03*
X122732800Y-99453700D03*
D17*
X126136400Y-93319600D03*
X126136400Y-95859600D03*
X126136400Y-98399600D03*
X126136400Y-90779600D03*
M02*
