%FSLAX46Y46*%
G04 Gerber Fmt 4.6, Leading zero omitted, Abs format (unit mm)*
G04 Created by KiCad (PCBNEW (2014-10-18 BZR 5203)-product) date 6/17/2015 3:02:02 PM*
%MOMM*%
G01*
G04 APERTURE LIST*
%ADD10C,0.100000*%
%ADD11C,1.524000*%
%ADD12R,1.998980X0.398780*%
%ADD13R,1.899920X2.100580*%
%ADD14R,1.600200X2.100580*%
%ADD15R,1.899920X1.899920*%
%ADD16R,0.797560X0.797560*%
%ADD17R,0.250000X0.700000*%
%ADD18R,0.700000X0.250000*%
%ADD19R,1.035000X1.035000*%
%ADD20R,0.750000X0.800000*%
%ADD21R,0.800000X0.750000*%
%ADD22R,0.500000X0.900000*%
%ADD23R,0.900000X0.500000*%
G04 APERTURE END LIST*
D10*
D11*
X116027200Y-94843600D03*
D12*
X110848140Y-94843600D03*
X110848140Y-95491300D03*
X110848140Y-93545660D03*
D13*
X107899200Y-98694240D03*
X107899200Y-90992960D03*
D12*
X110848140Y-94195900D03*
X110848140Y-96141540D03*
D14*
X110449360Y-97942400D03*
X110449360Y-91744800D03*
D15*
X107899200Y-96042480D03*
X107899200Y-93644720D03*
D16*
X124561600Y-98082100D03*
X124561600Y-96583500D03*
D17*
X121688800Y-95719600D03*
X121188800Y-95719600D03*
X120688800Y-95719600D03*
X120188800Y-95719600D03*
X119688800Y-95719600D03*
X119188800Y-95719600D03*
X118688800Y-95719600D03*
X118188800Y-95719600D03*
D18*
X117538800Y-95069600D03*
X117538800Y-94569600D03*
X117538800Y-94069600D03*
X117538800Y-93569600D03*
X117538800Y-93069600D03*
X117538800Y-92569600D03*
X117538800Y-92069600D03*
X117538800Y-91569600D03*
D17*
X118188800Y-90919600D03*
X118688800Y-90919600D03*
X119188800Y-90919600D03*
X119688800Y-90919600D03*
X120188800Y-90919600D03*
X120688800Y-90919600D03*
X121188800Y-90919600D03*
X121688800Y-90919600D03*
D18*
X122338800Y-91569600D03*
X122338800Y-92069600D03*
X122338800Y-92569600D03*
X122338800Y-93069600D03*
X122338800Y-93569600D03*
X122338800Y-94069600D03*
X122338800Y-94569600D03*
X122338800Y-95069600D03*
D19*
X119076300Y-92457100D03*
X120801300Y-92457100D03*
X119076300Y-94182100D03*
X120801300Y-94182100D03*
D20*
X116179600Y-91682000D03*
X116179600Y-90182000D03*
D21*
X118047200Y-97129600D03*
X116547200Y-97129600D03*
D22*
X118579200Y-98552000D03*
X120079200Y-98552000D03*
X118579200Y-99822000D03*
X120079200Y-99822000D03*
D23*
X122478800Y-98005200D03*
X122478800Y-99505200D03*
M02*
